<svg width="32" height="32" viewBox="0 0 32 32" fill="none" xmlns="http://www.w3.org/2000/svg">
<g clip-path="url(#clip0_15_6918)">
<path d="M29.3333 6.66608H22.6667V5.3327C22.6667 3.86202 21.4708 2.66602 20 2.66602H12C10.5293 2.66602 9.33331 3.86195 9.33331 5.3327V6.66602H2.66669C1.19594 6.66608 0 7.86201 0 9.3327V13.3327C0 14.8035 1.19594 15.9994 2.66669 15.9994H13.3334V15.3327C13.3334 14.9642 13.6316 14.666 14.0001 14.666H18.0001C18.3686 14.666 18.6667 14.9642 18.6667 15.3327V15.9994H29.3334C30.8041 15.9994 32 14.8035 32 13.3327V9.3327C32 7.86201 30.8041 6.66608 29.3333 6.66608ZM20 6.66608H12V5.3327H20V6.66608Z" fill="#87CB28"/>
<path d="M31.6302 16.7188C31.403 16.6062 31.1315 16.6322 30.9309 16.7845C30.457 17.1433 29.9049 17.3327 29.3332 17.3327H18.6667V19.3327C18.6667 19.7012 18.3685 19.9994 18 19.9994H14C13.6315 19.9994 13.3333 19.7012 13.3333 19.3327V17.3327H2.66669C2.09506 17.3327 1.543 17.1433 1.069 16.7845C0.867812 16.6309 0.597 16.6048 0.36975 16.7188C0.14325 16.8315 0 17.0625 0 17.3158V26.6661C0 28.1368 1.19594 29.3328 2.66669 29.3328H29.3334C30.804 29.3328 32 28.1368 32 26.6661V17.3158C32 17.0625 31.8567 16.8315 31.6302 16.7188Z" fill="#87CB28"/>
</g>
<defs>
<clipPath id="clip0_15_6918">
<rect width="32" height="32" fill="white"/>
</clipPath>
</defs>
</svg>
