<svg width="34" height="34" viewBox="0 0 34 34" fill="none" xmlns="http://www.w3.org/2000/svg">
<g opacity="0.5" clip-path="url(#clip0_39_369)">
<path d="M28.8213 4.93965C22.235 -1.64525 11.5239 -1.64525 4.93759 4.93965C-1.64586 11.5246 -1.64586 22.2385 4.93759 28.8234C8.23073 32.1151 12.5554 33.7603 16.8802 33.7603C21.2049 33.7603 25.5282 32.1151 28.8213 28.8234C35.4062 22.2386 35.4062 11.5246 28.8213 4.93965ZM23.845 21.8571C24.3952 22.4074 24.3952 23.2968 23.845 23.8471C23.5706 24.1215 23.2103 24.2594 22.85 24.2594C22.4897 24.2594 22.1294 24.1215 21.855 23.8471L16.8801 18.8707L11.9066 23.8456C11.6308 24.12 11.2705 24.258 10.9116 24.258C10.5514 24.258 10.191 24.12 9.91662 23.8456C9.36638 23.2954 9.36638 22.4045 9.91662 21.8557L14.8901 16.8808L9.91523 11.9059C9.36499 11.3557 9.36499 10.4648 9.91523 9.91598C10.4641 9.36574 11.3549 9.36574 11.9052 9.91598L16.88 14.8909L21.8549 9.91598C22.4052 9.36574 23.2946 9.36574 23.8449 9.91598C24.3951 10.4648 24.3951 11.3557 23.8449 11.9059L18.87 16.8808L23.845 21.8571Z" fill="white"/>
</g>
<defs>
<clipPath id="clip0_39_369">
<rect width="33.76" height="33.76" fill="white"/>
</clipPath>
</defs>
</svg>
