<svg width="62" height="62" viewBox="0 0 62 62" fill="none" xmlns="http://www.w3.org/2000/svg">
<g clip-path="url(#clip0_1188_17061)">
<path d="M60.2268 8.47636C59.3147 7.5627 57.8349 7.56113 56.9228 8.47248L28.8904 36.4309L18.7764 25.4461C17.9025 24.4974 16.4249 24.4359 15.4747 25.3097C14.5252 26.1837 14.4644 27.662 15.3383 28.6115L27.0997 41.3846C27.5304 41.8527 28.1332 42.1246 28.7688 42.1378C28.7859 42.1385 28.8024 42.1385 28.8187 42.1385C29.4364 42.1385 30.0306 41.8932 30.4684 41.457L60.2222 11.7811C61.1366 10.8699 61.1382 9.39001 60.2268 8.47636Z" fill="#6EB012"/>
<path d="M59.6633 28.6633C58.3726 28.6633 57.3266 29.7093 57.3266 31C57.3266 45.5171 45.5171 57.3266 31 57.3266C16.4838 57.3266 4.67337 45.5171 4.67337 31C4.67337 16.4838 16.4838 4.67337 31 4.67337C32.2906 4.67337 33.3367 3.62736 33.3367 2.33675C33.3367 1.04601 32.2906 0 31 0C13.9064 0 0 13.9064 0 31C0 48.0929 13.9064 62 31 62C48.0929 62 62 48.0929 62 31C62 29.7094 60.954 28.6633 59.6633 28.6633Z" fill="#6EB012"/>
</g>
<defs>
<clipPath id="clip0_1188_17061">
<rect width="62" height="62" fill="white"/>
</clipPath>
</defs>
</svg>
