<svg width="36" height="26" viewBox="0 0 36 26" fill="none" xmlns="http://www.w3.org/2000/svg">
<path d="M1.04757 11.8813L12.1309 0.797977C12.4295 0.50956 12.8295 0.349968 13.2446 0.353575C13.6598 0.357183 14.0569 0.523701 14.3505 0.817264C14.644 1.11083 14.8105 1.50795 14.8141 1.92309C14.8177 2.33824 14.6582 2.73819 14.3697 3.03681L5.98915 11.4174H33.8337C34.2536 11.4174 34.6563 11.5842 34.9532 11.8811C35.2502 12.1781 35.417 12.5808 35.417 13.0007C35.417 13.4207 35.2502 13.8234 34.9532 14.1203C34.6563 14.4172 34.2536 14.5841 33.8337 14.5841H5.98915L14.3697 22.9646C14.521 23.1107 14.6416 23.2854 14.7246 23.4786C14.8075 23.6718 14.8512 23.8795 14.8531 24.0898C14.8549 24.3 14.8148 24.5085 14.7352 24.7031C14.6556 24.8977 14.538 25.0744 14.3894 25.2231C14.2407 25.3718 14.0639 25.4893 13.8693 25.5689C13.6747 25.6486 13.4663 25.6886 13.256 25.6868C13.0458 25.685 12.838 25.6413 12.6448 25.5583C12.4517 25.4753 12.277 25.3547 12.1309 25.2035L1.04757 14.1201C0.75074 13.8232 0.583992 13.4206 0.583992 13.0007C0.583992 12.5809 0.75074 12.1782 1.04757 11.8813Z" fill="#272121"/>
</svg>
