<svg width="36" height="26" viewBox="0 0 36 26" fill="none" xmlns="http://www.w3.org/2000/svg">
<path d="M34.9524 11.8813L23.8691 0.797977C23.5705 0.50956 23.1705 0.349968 22.7554 0.353575C22.3402 0.357183 21.9431 0.523701 21.6495 0.817264C21.356 1.11083 21.1895 1.50795 21.1859 1.92309C21.1823 2.33824 21.3418 2.73819 21.6303 3.03681L30.0108 11.4174H2.16634C1.74642 11.4174 1.34369 11.5842 1.04676 11.8811C0.749823 12.1781 0.583008 12.5808 0.583008 13.0007C0.583008 13.4207 0.749823 13.8234 1.04676 14.1203C1.34369 14.4172 1.74642 14.5841 2.16634 14.5841H30.0108L21.6303 22.9646C21.479 23.1107 21.3584 23.2854 21.2754 23.4786C21.1925 23.6718 21.1488 23.8795 21.1469 24.0898C21.1451 24.3 21.1852 24.5085 21.2648 24.7031C21.3444 24.8977 21.462 25.0744 21.6106 25.2231C21.7593 25.3718 21.9361 25.4893 22.1307 25.5689C22.3253 25.6486 22.5337 25.6886 22.744 25.6868C22.9542 25.685 23.162 25.6413 23.3552 25.5583C23.5483 25.4753 23.723 25.3547 23.8691 25.2035L34.9524 14.1201C35.2493 13.8232 35.416 13.4206 35.416 13.0007C35.416 12.5809 35.2493 12.1782 34.9524 11.8813Z" fill="#272121"/>
</svg>
