<svg width="57" height="57" viewBox="0 0 57 57" fill="none" xmlns="http://www.w3.org/2000/svg">
<mask id="path-1-outside-1_4_301" maskUnits="userSpaceOnUse" x="11.1279" y="1.70923" width="35" height="51" fill="black">
<rect fill="white" x="11.1279" y="1.70923" width="35" height="51"/>
<path d="M39.3585 6.49927C35.5029 3.32191 30.4273 2.05755 25.4358 3.02939C18.7158 4.33749 13.3187 10.0101 12.3111 16.8243C11.4892 22.385 13.4647 27.9382 17.5958 31.6802C19.4571 33.366 20.58 35.7942 20.7583 38.5183C20.7618 38.5677 20.7714 38.6154 20.7822 38.6626V47.2046C20.7822 47.6749 21.1633 48.0566 21.6342 48.0566H22.4833C22.8293 50.5325 24.6491 52.4285 26.841 52.4285H30.7091C32.9009 52.4285 34.7202 50.5325 35.0661 48.0566H35.9153C36.3856 48.0566 36.7673 47.6749 36.7673 47.2046V38.5262C36.7673 38.5245 36.7679 38.5228 36.7679 38.5206C36.7679 35.9862 37.9186 33.5387 40.0088 31.6291C43.452 28.4835 45.4264 24.0094 45.4264 19.3547C45.4269 14.3632 43.2152 9.67721 39.3585 6.49927ZM25.7624 22.669H24.4532C23.7312 22.669 23.1439 22.0816 23.1439 21.3597C23.1439 20.6378 23.7312 20.0505 24.4532 20.0505C25.1751 20.0505 25.7624 20.6378 25.7624 21.3597V22.669ZM31.7882 21.3597C31.7882 20.6378 32.3755 20.0505 33.098 20.0505C33.82 20.0505 34.4073 20.6378 34.4073 21.3597C34.4073 22.0816 33.82 22.669 33.098 22.669H31.7899L31.7882 21.3597ZM31.2753 39.3118H35.0639V46.3526H34.284C34.2823 46.3526 34.2806 46.3521 34.2783 46.3521C34.2761 46.3521 34.2749 46.3526 34.2727 46.3526H23.2774C23.2757 46.3526 23.274 46.3521 23.2717 46.3521C23.2695 46.3521 23.2683 46.3526 23.266 46.3526H22.4868V39.3118H30.6466M27.4664 37.6078V24.3729H30.0888L30.1081 37.6078H27.4664ZM30.7091 50.7245H26.841C25.5698 50.7245 24.5026 49.5862 24.2072 48.0566H33.3423C33.0475 49.5862 31.9802 50.7245 30.7091 50.7245ZM38.8598 30.3715C36.6605 32.3805 35.3587 34.9229 35.115 37.6078H31.8115L31.7928 24.3729H33.098C34.7594 24.3729 36.1113 23.0211 36.1113 21.3597C36.1113 19.6983 34.7594 18.3465 33.098 18.3465C31.4361 18.3465 30.0843 19.6983 30.0843 21.3609L30.086 22.669H27.4664V21.3597C27.4664 19.6983 26.1145 18.3465 24.4532 18.3465C22.7918 18.3465 21.4399 19.6983 21.4399 21.3597C21.4399 23.0211 22.7918 24.3729 24.4532 24.3729H25.7624V37.6078H22.3703C22.0091 34.765 20.7436 32.2317 18.7391 30.417C15.0313 27.0579 13.258 22.0697 13.9964 17.0731C14.9 10.9614 19.7377 5.87448 25.7607 4.70157C30.2524 3.82799 34.8134 4.96171 38.2736 7.81418C41.7361 10.6672 43.7218 14.8738 43.7218 19.3553C43.723 23.5323 41.9502 27.548 38.8598 30.3715Z"/>
</mask>
<path d="M39.3585 6.49927C35.5029 3.32191 30.4273 2.05755 25.4358 3.02939C18.7158 4.33749 13.3187 10.0101 12.3111 16.8243C11.4892 22.385 13.4647 27.9382 17.5958 31.6802C19.4571 33.366 20.58 35.7942 20.7583 38.5183C20.7618 38.5677 20.7714 38.6154 20.7822 38.6626V47.2046C20.7822 47.6749 21.1633 48.0566 21.6342 48.0566H22.4833C22.8293 50.5325 24.6491 52.4285 26.841 52.4285H30.7091C32.9009 52.4285 34.7202 50.5325 35.0661 48.0566H35.9153C36.3856 48.0566 36.7673 47.6749 36.7673 47.2046V38.5262C36.7673 38.5245 36.7679 38.5228 36.7679 38.5206C36.7679 35.9862 37.9186 33.5387 40.0088 31.6291C43.452 28.4835 45.4264 24.0094 45.4264 19.3547C45.4269 14.3632 43.2152 9.67721 39.3585 6.49927ZM25.7624 22.669H24.4532C23.7312 22.669 23.1439 22.0816 23.1439 21.3597C23.1439 20.6378 23.7312 20.0505 24.4532 20.0505C25.1751 20.0505 25.7624 20.6378 25.7624 21.3597V22.669ZM31.7882 21.3597C31.7882 20.6378 32.3755 20.0505 33.098 20.0505C33.82 20.0505 34.4073 20.6378 34.4073 21.3597C34.4073 22.0816 33.82 22.669 33.098 22.669H31.7899L31.7882 21.3597ZM31.2753 39.3118H35.0639V46.3526H34.284C34.2823 46.3526 34.2806 46.3521 34.2783 46.3521C34.2761 46.3521 34.2749 46.3526 34.2727 46.3526H23.2774C23.2757 46.3526 23.274 46.3521 23.2717 46.3521C23.2695 46.3521 23.2683 46.3526 23.266 46.3526H22.4868V39.3118H30.6466M27.4664 37.6078V24.3729H30.0888L30.1081 37.6078H27.4664ZM30.7091 50.7245H26.841C25.5698 50.7245 24.5026 49.5862 24.2072 48.0566H33.3423C33.0475 49.5862 31.9802 50.7245 30.7091 50.7245ZM38.8598 30.3715C36.6605 32.3805 35.3587 34.9229 35.115 37.6078H31.8115L31.7928 24.3729H33.098C34.7594 24.3729 36.1113 23.0211 36.1113 21.3597C36.1113 19.6983 34.7594 18.3465 33.098 18.3465C31.4361 18.3465 30.0843 19.6983 30.0843 21.3609L30.086 22.669H27.4664V21.3597C27.4664 19.6983 26.1145 18.3465 24.4532 18.3465C22.7918 18.3465 21.4399 19.6983 21.4399 21.3597C21.4399 23.0211 22.7918 24.3729 24.4532 24.3729H25.7624V37.6078H22.3703C22.0091 34.765 20.7436 32.2317 18.7391 30.417C15.0313 27.0579 13.258 22.0697 13.9964 17.0731C14.9 10.9614 19.7377 5.87448 25.7607 4.70157C30.2524 3.82799 34.8134 4.96171 38.2736 7.81418C41.7361 10.6672 43.7218 14.8738 43.7218 19.3553C43.723 23.5323 41.9502 27.548 38.8598 30.3715Z" fill="#313C4E"/>
<path d="M39.3585 6.49927L39.2267 6.65923L39.2267 6.65924L39.3585 6.49927ZM25.4358 3.02939L25.4754 3.23285L25.4754 3.23284L25.4358 3.02939ZM12.3111 16.8243L12.1061 16.794L12.1061 16.794L12.3111 16.8243ZM17.5958 31.6802L17.4566 31.8338L17.4566 31.8338L17.5958 31.6802ZM20.7583 38.5183L20.5515 38.5318L20.5516 38.5326L20.7583 38.5183ZM20.7822 38.6626H20.9895V38.6391L20.9842 38.6163L20.7822 38.6626ZM22.4833 48.0566L22.6886 48.028L22.6637 47.8494H22.4833V48.0566ZM35.0661 48.0566V47.8494H34.8858L34.8609 48.028L35.0661 48.0566ZM40.0088 31.6291L39.869 31.4761L39.869 31.4761L40.0088 31.6291ZM45.4264 19.3547L45.2191 19.3547V19.3547H45.4264ZM25.7624 22.669V22.8762H25.9697V22.669H25.7624ZM31.7882 21.3597L31.581 21.3597L31.581 21.36L31.7882 21.3597ZM31.7899 22.669L31.5827 22.6692L31.5829 22.8762H31.7899V22.669ZM35.0639 39.3118H35.2711V39.1045H35.0639V39.3118ZM35.0639 46.3526V46.5599H35.2711V46.3526H35.0639ZM22.4868 46.3526H22.2795V46.5599H22.4868V46.3526ZM22.4868 39.3118V39.1045H22.2795V39.3118H22.4868ZM27.4664 37.6078H27.2591V37.8151H27.4664V37.6078ZM27.4664 24.3729V24.1657H27.2591V24.3729H27.4664ZM30.0888 24.3729L30.2961 24.3726L30.2958 24.1657H30.0888V24.3729ZM30.1081 37.6078V37.8151H30.3157L30.3154 37.6075L30.1081 37.6078ZM24.2072 48.0566V47.8494H23.9561L24.0037 48.0959L24.2072 48.0566ZM33.3423 48.0566L33.5458 48.0959L33.5933 47.8494H33.3423V48.0566ZM38.8598 30.3715L38.9996 30.5246L38.9996 30.5246L38.8598 30.3715ZM35.115 37.6078V37.8151H35.3043L35.3214 37.6265L35.115 37.6078ZM31.8115 37.6078L31.6043 37.6081L31.6046 37.8151H31.8115V37.6078ZM31.7928 24.3729V24.1657H31.5852L31.5855 24.3732L31.7928 24.3729ZM30.0843 21.3609L29.877 21.3609L29.877 21.3611L30.0843 21.3609ZM30.086 22.669V22.8762H30.2935L30.2932 22.6687L30.086 22.669ZM27.4664 22.669H27.2591V22.8762H27.4664V22.669ZM25.7624 24.3729H25.9697V24.1657H25.7624V24.3729ZM25.7624 37.6078V37.8151H25.9697V37.6078H25.7624ZM22.3703 37.6078L22.1647 37.6339L22.1877 37.8151H22.3703V37.6078ZM18.7391 30.417L18.6 30.5706L18.6 30.5706L18.7391 30.417ZM13.9964 17.0731L13.7913 17.0428L13.7913 17.0428L13.9964 17.0731ZM25.7607 4.70157L25.7211 4.49811L25.7211 4.49812L25.7607 4.70157ZM38.2736 7.81418L38.1418 7.97412L38.1418 7.97415L38.2736 7.81418ZM43.7218 19.3553L43.5145 19.3553L43.5145 19.3553L43.7218 19.3553ZM39.4903 6.33932C35.586 3.12175 30.4472 1.84252 25.3962 2.82594L25.4754 3.23284C30.4075 2.27259 35.4199 3.52207 39.2267 6.65923L39.4903 6.33932ZM25.3962 2.82594C18.5892 4.15097 13.1265 9.89351 12.1061 16.794L12.5162 16.8546C13.511 10.1266 18.8424 4.524 25.4754 3.23285L25.3962 2.82594ZM12.1061 16.794C11.2742 22.4224 13.2738 28.0449 17.4566 31.8338L17.7349 31.5266C13.6557 27.8316 11.7043 22.3475 12.5162 16.8546L12.1061 16.794ZM17.4566 31.8338C19.2744 33.4802 20.3763 35.8563 20.5515 38.5318L20.9652 38.5047C20.7836 35.7321 19.6398 33.2518 17.7349 31.5266L17.4566 31.8338ZM20.5516 38.5326C20.5561 38.5987 20.5688 38.6593 20.5802 38.7088L20.9842 38.6163C20.974 38.5715 20.9674 38.5367 20.9651 38.504L20.5516 38.5326ZM20.5749 38.6626V47.2046H20.9895V38.6626H20.5749ZM20.5749 47.2046C20.5749 47.7893 21.0488 48.2639 21.6342 48.2639V47.8494C21.2779 47.8494 20.9895 47.5606 20.9895 47.2046H20.5749ZM21.6342 48.2639H22.4833V47.8494H21.6342V48.2639ZM22.2781 48.0853C22.6342 50.6346 24.5189 52.6358 26.841 52.6358V52.2212C24.7793 52.2212 23.0243 50.4305 22.6886 48.028L22.2781 48.0853ZM26.841 52.6358H30.7091V52.2212H26.841V52.6358ZM30.7091 52.6358C33.0312 52.6358 34.9153 50.6346 35.2714 48.0853L34.8609 48.028C34.5252 50.4305 32.7707 52.2212 30.7091 52.2212V52.6358ZM35.0661 48.2639H35.9153V47.8494H35.0661V48.2639ZM35.9153 48.2639C36.5001 48.2639 36.9746 47.7894 36.9746 47.2046H36.56C36.56 47.5605 36.2711 47.8494 35.9153 47.8494V48.2639ZM36.9746 47.2046V38.5262H36.56V47.2046H36.9746ZM36.9746 38.5262C36.9746 38.5371 36.9737 38.5457 36.9731 38.5501C36.9728 38.5524 36.9726 38.5542 36.9725 38.5549C36.9724 38.5552 36.9723 38.5562 36.9724 38.5551C36.9728 38.553 36.9751 38.5387 36.9751 38.5206H36.5606C36.5606 38.5047 36.5627 38.4923 36.5627 38.4921C36.5628 38.4915 36.5626 38.4929 36.5625 38.4937C36.5623 38.4949 36.562 38.4971 36.5616 38.4998C36.561 38.5051 36.56 38.5145 36.56 38.5262H36.9746ZM36.9751 38.5206C36.9751 36.0515 38.0958 33.6575 40.1486 31.7821L39.869 31.4761C37.7414 33.4198 36.5606 35.9208 36.5606 38.5206H36.9751ZM40.1486 31.7821C43.6347 28.5974 45.6336 24.0678 45.6336 19.3547H45.2191C45.2191 23.9511 43.2693 28.3697 39.869 31.4761L40.1486 31.7821ZM45.6336 19.3547C45.6342 14.3012 43.3947 9.55657 39.4903 6.33931L39.2267 6.65924C43.0356 9.79784 45.2197 14.4251 45.2191 19.3547L45.6336 19.3547ZM25.7624 22.4617H24.4532V22.8762H25.7624V22.4617ZM24.4532 22.4617C23.8457 22.4617 23.3512 21.9672 23.3512 21.3597H22.9367C22.9367 22.1961 23.6168 22.8762 24.4532 22.8762V22.4617ZM23.3512 21.3597C23.3512 20.7523 23.8457 20.2578 24.4532 20.2578V19.8432C23.6168 19.8432 22.9367 20.5233 22.9367 21.3597H23.3512ZM24.4532 20.2578C25.0606 20.2578 25.5551 20.7523 25.5551 21.3597H25.9697C25.9697 20.5233 25.2895 19.8432 24.4532 19.8432V20.2578ZM25.5551 21.3597V22.669H25.9697V21.3597H25.5551ZM31.9955 21.3597C31.9955 20.7523 32.49 20.2578 33.098 20.2578V19.8432C32.2611 19.8432 31.581 20.5233 31.581 21.3597H31.9955ZM33.098 20.2578C33.7055 20.2578 34.2 20.7523 34.2 21.3597H34.6145C34.6145 20.5233 33.9344 19.8432 33.098 19.8432V20.2578ZM34.2 21.3597C34.2 21.9672 33.7055 22.4617 33.098 22.4617V22.8762C33.9344 22.8762 34.6145 22.1961 34.6145 21.3597H34.2ZM33.098 22.4617H31.7899V22.8762H33.098V22.4617ZM31.9972 22.6687L31.9955 21.3595L31.581 21.36L31.5827 22.6692L31.9972 22.6687ZM31.2753 39.5191H35.0639V39.1045H31.2753V39.5191ZM34.8566 39.3118V46.3526H35.2711V39.3118H34.8566ZM35.0639 46.1454H34.284V46.5599H35.0639V46.1454ZM34.284 46.1454C34.2949 46.1454 34.3034 46.1463 34.3079 46.1468C34.3102 46.1471 34.3119 46.1474 34.3126 46.1475C34.313 46.1475 34.3139 46.1477 34.3129 46.1475C34.3108 46.1472 34.2964 46.1448 34.2783 46.1448V46.5594C34.2625 46.5594 34.2501 46.5573 34.2499 46.5572C34.2493 46.5571 34.2507 46.5573 34.2515 46.5575C34.2527 46.5576 34.2548 46.558 34.2576 46.5583C34.2629 46.5589 34.2723 46.5599 34.284 46.5599V46.1454ZM34.2783 46.1448C34.2688 46.1448 34.2603 46.1454 34.2531 46.1463C34.2496 46.1467 34.2468 46.1471 34.2448 46.1474C34.243 46.1476 34.2414 46.1479 34.2414 46.1479C34.2404 46.1481 34.2449 46.1473 34.2504 46.1466C34.2567 46.1459 34.2642 46.1454 34.2727 46.1454V46.5599C34.2822 46.5599 34.2907 46.5593 34.2979 46.5585C34.3014 46.5581 34.3042 46.5577 34.3062 46.5574C34.308 46.5571 34.3096 46.5568 34.3096 46.5568C34.3106 46.5566 34.306 46.5574 34.3006 46.5581C34.2942 46.5588 34.2867 46.5594 34.2783 46.5594V46.1448ZM34.2727 46.1454H23.2774V46.5599H34.2727V46.1454ZM23.2774 46.1454C23.2883 46.1454 23.2968 46.1463 23.3013 46.1468C23.3036 46.1471 23.3053 46.1474 23.306 46.1475C23.3064 46.1475 23.3073 46.1477 23.3063 46.1475C23.3042 46.1472 23.2898 46.1448 23.2717 46.1448V46.5594C23.2559 46.5594 23.2435 46.5573 23.2433 46.5572C23.2427 46.5571 23.244 46.5573 23.2449 46.5575C23.246 46.5576 23.2482 46.558 23.2509 46.5583C23.2563 46.5589 23.2657 46.5599 23.2774 46.5599V46.1454ZM23.2717 46.1448C23.2622 46.1448 23.2537 46.1454 23.2464 46.1463C23.243 46.1467 23.2402 46.1471 23.2382 46.1474C23.2364 46.1476 23.2348 46.1479 23.2348 46.1479C23.2338 46.1481 23.2383 46.1473 23.2438 46.1466C23.2501 46.1459 23.2576 46.1454 23.266 46.1454V46.5599C23.2756 46.5599 23.2841 46.5593 23.2913 46.5585C23.2948 46.5581 23.2976 46.5577 23.2996 46.5574C23.3014 46.5571 23.3029 46.5568 23.303 46.5568C23.304 46.5566 23.2994 46.5574 23.2939 46.5581C23.2876 46.5588 23.2801 46.5594 23.2717 46.5594V46.1448ZM23.266 46.1454H22.4868V46.5599H23.266V46.1454ZM22.694 46.3526V39.3118H22.2795V46.3526H22.694ZM22.4868 39.5191H30.6466V39.1045H22.4868V39.5191ZM27.6736 37.6078V24.3729H27.2591V37.6078H27.6736ZM27.4664 24.5802H30.0888V24.1657H27.4664V24.5802ZM29.8815 24.3732L29.9008 37.6081L30.3154 37.6075L30.2961 24.3726L29.8815 24.3732ZM30.1081 37.4005H27.4664V37.8151H30.1081V37.4005ZM30.7091 50.5172H26.841V50.9318H30.7091V50.5172ZM26.841 50.5172C25.7057 50.5172 24.6952 49.4904 24.4107 48.0173L24.0037 48.0959C24.31 49.6821 25.434 50.9318 26.841 50.9318V50.5172ZM24.2072 48.2639H33.3423V47.8494H24.2072V48.2639ZM33.1387 48.0174C32.8549 49.4904 31.8444 50.5172 30.7091 50.5172V50.9318C32.1161 50.9318 33.2401 49.6821 33.5458 48.0959L33.1387 48.0174ZM38.72 30.2185C36.4861 32.2591 35.1573 34.848 34.9086 37.5891L35.3214 37.6265C35.56 34.9977 36.8349 32.5019 38.9996 30.5246L38.72 30.2185ZM35.115 37.4005H31.8115V37.8151H35.115V37.4005ZM32.0188 37.6075L32.0001 24.3726L31.5855 24.3732L31.6043 37.6081L32.0188 37.6075ZM31.7928 24.5802H33.098V24.1657H31.7928V24.5802ZM33.098 24.5802C34.8739 24.5802 36.3185 23.1356 36.3185 21.3597H35.904C35.904 22.9066 34.6449 24.1657 33.098 24.1657V24.5802ZM36.3185 21.3597C36.3185 19.5839 34.8739 18.1392 33.098 18.1392V18.5538C34.6449 18.5538 35.904 19.8128 35.904 21.3597H36.3185ZM33.098 18.1392C31.3216 18.1392 29.877 19.5839 29.877 21.3609H30.2915C30.2915 19.8128 31.5506 18.5538 33.098 18.5538V18.1392ZM29.877 21.3611L29.8787 22.6692L30.2932 22.6687L30.2915 21.3606L29.877 21.3611ZM30.086 22.4617H27.4664V22.8762H30.086V22.4617ZM27.6736 22.669V21.3597H27.2591V22.669H27.6736ZM27.6736 21.3597C27.6736 19.5839 26.229 18.1392 24.4532 18.1392V18.5538C26.0001 18.5538 27.2591 19.8128 27.2591 21.3597H27.6736ZM24.4532 18.1392C22.6773 18.1392 21.2327 19.5839 21.2327 21.3597H21.6472C21.6472 19.8128 22.9062 18.5538 24.4532 18.5538V18.1392ZM21.2327 21.3597C21.2327 23.1356 22.6773 24.5802 24.4532 24.5802V24.1657C22.9062 24.1657 21.6472 22.9066 21.6472 21.3597H21.2327ZM24.4532 24.5802H25.7624V24.1657H24.4532V24.5802ZM25.5551 24.3729V37.6078H25.9697V24.3729H25.5551ZM25.7624 37.4005H22.3703V37.8151H25.7624V37.4005ZM22.5759 37.5817C22.209 34.694 20.9224 32.114 18.8782 30.2633L18.6 30.5706C20.5647 32.3494 21.8092 34.836 22.1647 37.6339L22.5759 37.5817ZM18.8783 30.2634C15.2223 26.9512 13.473 22.0323 14.2014 17.1034L13.7913 17.0428C13.0429 22.1071 14.8402 27.1645 18.6 30.5706L18.8783 30.2634ZM14.2014 17.1034C15.0924 11.0779 19.8643 6.06098 25.8003 4.90502L25.7211 4.49812C19.611 5.68798 14.7077 10.845 13.7913 17.0428L14.2014 17.1034ZM25.8003 4.90503C30.2327 4.04299 34.7305 5.16198 38.1418 7.97412L38.4055 7.65425C34.8963 4.76145 30.2721 3.613 25.7211 4.49811L25.8003 4.90503ZM38.1418 7.97415C41.5566 10.7879 43.5145 14.9358 43.5145 19.3553H43.9291C43.9291 14.8118 41.9156 10.5466 38.4054 7.65422L38.1418 7.97415ZM43.5145 19.3553C43.5157 23.474 41.7676 27.4342 38.72 30.2185L38.9996 30.5246C42.1329 27.6619 43.9302 23.5907 43.9291 19.3552L43.5145 19.3553Z" fill="#313C4E" mask="url(#path-1-outside-1_4_301)"/>
</svg>
