<svg width="55" height="55" viewBox="0 0 55 55" fill="none" xmlns="http://www.w3.org/2000/svg">
<path d="M45.0995 0H9.90072C6.86667 0 4.39941 2.46695 4.39941 5.49948V49.5014C4.39941 52.5331 6.86636 54.9997 9.90072 54.9997H45.0995C48.133 54.9997 50.5999 52.5331 50.5999 49.5014V5.50131C50.6015 2.46847 48.1348 0 45.0995 0ZM48.4011 49.5014C48.4011 51.3217 46.9202 52.8017 45.0995 52.8017H9.90072C8.08071 52.8017 6.60073 51.3217 6.60073 49.5014V5.50131C6.60073 3.6813 8.08071 2.20131 9.90072 2.20131H45.0995C46.9186 2.20131 48.3986 3.6813 48.3986 5.50131V49.5017H48.4011V49.5014Z" fill="#313C4E"/>
<path d="M39.0992 24.0476H15.9027C15.3444 24.0476 14.8936 24.5003 14.8936 25.0586C14.8936 25.6165 15.3444 26.0695 15.9027 26.0695H39.0989C39.6578 26.0695 40.1086 25.6169 40.1086 25.0586C40.1089 24.5006 39.6578 24.0476 39.0992 24.0476Z" fill="#313C4E"/>
<path d="M39.0992 28.6543H15.9027C15.3444 28.6543 14.8936 29.1079 14.8936 29.6662C14.8936 30.2245 15.3444 30.6759 15.9027 30.6759H39.0989C39.6578 30.6759 40.1086 30.2245 40.1086 29.6662C40.1074 29.1048 39.6578 28.6543 39.0992 28.6543Z" fill="#313C4E"/>
<path d="M39.0992 33.2595H15.9027C15.3444 33.2595 14.8936 33.7131 14.8936 34.2708C14.8936 34.8291 15.3444 35.2811 15.9027 35.2811H39.0989C39.6578 35.2811 40.1086 34.8291 40.1086 34.2708C40.1089 33.7131 39.6578 33.2595 39.0992 33.2595Z" fill="#313C4E"/>
<path d="M39.0997 37.8657H27.5006C26.9432 37.8657 26.4902 38.3175 26.4902 38.8758C26.4902 39.4341 26.9432 39.8876 27.5006 39.8876H39.0994C39.6583 39.8876 40.1076 39.4341 40.1076 38.8758C40.1076 38.3175 39.6583 37.8657 39.0997 37.8657Z" fill="#313C4E"/>
<path d="M39.0995 46.9629H30.9795C30.4193 46.9629 29.9697 47.4149 29.9697 47.9732C29.9697 48.5309 30.4193 48.983 30.9795 48.983H39.0995C39.6584 48.983 40.1077 48.5309 40.1077 47.9732C40.1077 47.4149 39.6581 46.9629 39.0995 46.9629Z" fill="#313C4E"/>
<path d="M28.6271 19.6067C28.6271 17.6947 26.4258 15.1157 23.4543 14.3622C24.6957 13.5274 25.5512 11.8786 25.5512 10.3937C25.5512 8.29958 23.8553 6.6001 21.7594 6.6001C19.6658 6.6001 17.9675 8.29958 17.9675 10.3937C17.9675 11.8771 18.8231 13.5258 20.0617 14.3622C17.0944 15.1154 14.8916 17.6962 14.8916 19.6067C14.894 21.866 28.6271 21.866 28.6271 19.6067ZM21.4536 15.4627H21.4363L20.8085 14.7417C21.1154 14.8504 21.4284 14.9169 21.7597 14.9169C22.0915 14.9169 22.4048 14.8522 22.7111 14.7432L22.0815 15.4624H22.0666L23.6868 19.3772L21.7597 21.2995L19.8346 19.3772L21.4536 15.4627Z" fill="#313C4E"/>
</svg>
