<svg width="55" height="55" viewBox="0 0 55 55" fill="none" xmlns="http://www.w3.org/2000/svg">
<path d="M46.4059 4.58203C48.6208 4.58203 50.4163 6.37756 50.4163 8.59245V15.5653C50.4163 17.9124 49.1121 20.0649 47.0317 21.1514L32.5942 28.6921C36.366 30.5674 38.958 34.4602 38.958 38.9584C38.958 45.2867 33.8279 50.4167 27.4997 50.4167C21.1714 50.4167 16.0413 45.2867 16.0413 38.9584C16.0413 34.4602 18.6333 30.5674 22.4052 28.6921L7.96765 21.1514C5.88726 20.0649 4.58301 17.9124 4.58301 15.5653V8.59245C4.58301 6.37756 6.37853 4.58203 8.59342 4.58203H46.4059ZM27.4997 30.9376C23.0699 30.9376 19.4788 34.5286 19.4788 38.9584C19.4788 43.3882 23.0699 46.9792 27.4997 46.9792C31.9295 46.9792 35.5205 43.3882 35.5205 38.9584C35.5205 34.5286 31.9295 30.9376 27.4997 30.9376ZM36.6663 8.01953H18.3261V22.6816L27.2345 27.3358C27.4006 27.4226 27.5987 27.4226 27.7649 27.3358L36.6663 22.6839V8.01953Z" fill="#313C4E"/>
</svg>
