<svg width="55" height="55" viewBox="0 0 55 55" fill="none" xmlns="http://www.w3.org/2000/svg">
<g clip-path="url(#clip0_17_1754)">
<path d="M30.3299 48.706C29.8225 49.1191 29.3126 49.4435 28.7994 49.6886C28.4508 49.7258 28.0999 49.7531 27.7472 49.7738V45.6836C26.9037 44.9933 26.0553 44.2763 25.2042 43.5397V49.7745C24.8516 49.7531 24.5007 49.7257 24.153 49.6885C23.6397 49.4434 23.129 49.1189 22.6216 48.7059C20.9677 47.3598 19.4197 45.0876 18.2326 42.1631H23.6381C22.7168 41.3394 21.7946 40.4909 20.8725 39.6202H17.3437C16.9222 38.2187 16.583 36.7072 16.3247 35.1219C15.3206 34.0831 14.3454 33.0417 13.3984 32.0021C13.6111 34.7089 14.0473 37.2767 14.6971 39.6202H8.20157C6.3829 36.6808 5.25547 33.2736 5.04186 29.6131H11.2776C10.5408 28.7622 9.82388 27.9136 9.13436 27.0701H5.04197C5.12966 25.5702 5.37892 24.1165 5.75719 22.7167C4.89379 21.5389 4.08413 20.3783 3.33754 19.2417C2.22745 22.0611 1.61084 25.129 1.61084 28.3425C1.61159 42.0753 12.742 53.2049 26.475 53.2058C29.6876 53.2058 32.7555 52.5892 35.574 51.4799C34.06 50.4841 32.502 49.3773 30.9177 48.1779C30.7231 48.3657 30.5278 48.5446 30.3299 48.706ZM11.2909 43.5266C10.8555 43.0912 10.4416 42.6342 10.0451 42.1632H15.5225C15.9306 43.2758 16.3793 44.3353 16.8816 45.3088C17.4735 46.4528 18.1292 47.4933 18.8452 48.4155C15.986 47.3285 13.4183 45.6524 11.2909 43.5266Z" fill="#313C4E"/>
<path d="M8.39893 11.2799C8.94198 12.2525 9.55945 13.2658 10.2391 14.3095C10.5785 13.9155 10.9229 13.5264 11.2912 13.1581C13.4227 11.0282 15.9963 9.34861 18.862 8.26176C17.5301 9.97197 16.4101 12.0935 15.5187 14.5207H10.3741C10.9187 15.35 11.5056 16.1994 12.1273 17.0636H14.7042C14.4699 17.9071 14.2688 18.7846 14.0875 19.6818C14.7688 20.5577 15.4815 21.4433 16.2232 22.3358C16.4907 20.4665 16.8664 18.6909 17.3565 17.0635H25.2047V27.0706H20.3737C21.1594 27.9207 21.9639 28.7692 22.7876 29.6135H25.2047V32.0307C26.049 32.8536 26.8975 33.6598 27.7477 34.4445V29.6135H37.1431C37.0388 33.2641 36.485 36.6713 35.5968 39.6206H33.7351C34.9569 40.6048 36.163 41.5312 37.3427 42.3911C37.3717 42.3133 37.4055 42.2421 37.4345 42.1635H42.907C42.5097 42.6345 42.0966 43.0915 41.6612 43.5269C41.2936 43.8944 40.9078 44.2438 40.5138 44.5831C41.556 45.2619 42.5675 45.8777 43.5378 46.4208C48.3397 41.8879 51.3413 35.4675 51.3413 28.3429C51.3403 14.6101 40.2091 3.47888 26.4754 3.47803C19.3506 3.47888 12.9319 6.4796 8.39893 11.2799ZM44.7503 39.6208H38.248C39.0874 36.5952 39.5957 33.2096 39.6942 29.6138H47.91C47.6964 33.2742 46.569 36.6813 44.7503 39.6208ZM44.7486 17.0636C46.5681 20.003 47.6956 23.411 47.9099 27.0707H39.6859C39.5865 23.4781 39.0932 20.0874 38.2538 17.0636H44.7486ZM41.6601 13.1581C42.0955 13.5936 42.5086 14.0497 42.9051 14.5207H37.4294C37.0213 13.409 36.5718 12.3494 36.0701 11.376C35.4783 10.2328 34.8227 9.19229 34.1075 8.26925C36.9658 9.35611 39.5329 11.0332 41.6601 13.1581ZM27.7476 6.91001C28.101 6.93153 28.4521 6.95884 28.8005 6.9961C29.3138 7.24032 29.8228 7.56485 30.3303 7.97781C31.9842 9.32303 33.5313 11.5961 34.7184 14.5206H27.7476V6.91001ZM27.7476 17.0636H35.6074C36.4956 20.0121 37.0461 23.4235 37.1512 27.0707H27.7476V17.0636ZM22.622 7.97781C23.1294 7.56474 23.6385 7.24032 24.1518 6.99524C24.5002 6.95798 24.8512 6.93068 25.2046 6.90916V14.5207H18.247C18.5276 13.8277 18.8224 13.159 19.141 12.5431C20.1626 10.563 21.3645 9.00514 22.622 7.97781Z" fill="#313C4E"/>
<path d="M53.8615 45.424C53.3467 44.0357 52.6314 42.5351 51.7557 40.944C51.1572 42.1377 50.4785 43.2858 49.7234 44.3769C50.1068 45.1691 50.428 45.914 50.682 46.6011C51.1994 47.9876 51.4328 49.144 51.4286 49.9172C51.4286 50.2839 51.3798 50.5595 51.316 50.7451C51.2515 50.9313 51.1836 51.0282 51.1058 51.1085C51.0271 51.1846 50.9311 51.2516 50.744 51.3171C50.5594 51.3799 50.2838 51.4287 49.917 51.4287C49.1869 51.432 48.1142 51.2259 46.8302 50.7665C45.5439 50.3104 44.0431 49.6125 42.3967 48.6971C36.752 45.5597 29.4204 39.8629 22.1913 32.6289C14.9573 25.4 9.2605 18.0682 6.12231 12.4227C5.20687 10.7762 4.50985 9.27624 4.05288 7.9898C3.5943 6.70594 3.38734 5.63322 3.39066 4.90301C3.39066 4.53544 3.44034 4.25984 3.50329 4.07601C3.56786 3.88896 3.63499 3.79377 3.71186 3.71433C3.79302 3.63574 3.88896 3.56775 4.07611 3.50329C4.2607 3.44034 4.53629 3.39066 4.90472 3.39066C5.67701 3.38659 6.83346 3.62 8.21754 4.13575C8.90706 4.39068 9.65547 4.71349 10.4519 5.09755C11.5429 4.34261 12.6884 3.6639 13.883 3.06538C12.2886 2.18699 10.7846 1.47102 9.3939 0.956125C7.76646 0.35761 6.28891 0.00492517 4.90483 0C4.24657 0.00096362 3.60415 0.0837279 2.98829 0.291549C2.37415 0.498406 1.78794 0.841133 1.31374 1.31791C0.838564 1.79051 0.496693 2.37586 0.291334 2.98926C0.0836208 3.60426 0.000856551 4.24582 0 4.90311C0.00417569 6.21107 0.319494 7.60082 0.858371 9.12484C1.39971 10.6471 2.17532 12.2994 3.1596 14.0709C6.53195 20.1227 12.3795 27.6085 19.7939 35.0262C27.2118 42.4407 34.6975 48.2882 40.7485 51.6606C42.5208 52.6448 44.1731 53.4204 45.6954 53.9619C47.2193 54.5 48.6092 54.8153 49.917 54.8195C50.5743 54.8195 51.2159 54.7359 51.831 54.5289C52.4435 54.3229 53.0288 53.9818 53.5022 53.5066C53.9791 53.0314 54.3217 52.4453 54.5279 51.8328C54.7357 51.2169 54.8185 50.5745 54.8193 49.9173C54.8144 48.5316 54.4617 47.0531 53.8615 45.424Z" fill="#313C4E"/>
</g>
<defs>
<clipPath id="clip0_17_1754">
<rect width="54.8193" height="54.8193" fill="white"/>
</clipPath>
</defs>
</svg>
