<svg width="59" height="59" viewBox="0 0 59 59" fill="none" xmlns="http://www.w3.org/2000/svg">
<path d="M46.6463 44.404C43.4647 48.0638 39.1965 50.6106 34.4647 51.6726C29.733 52.7346 24.7857 52.2561 20.3453 50.307C15.9048 48.3575 12.2039 45.0394 9.78303 40.8372C7.36216 36.6351 6.34811 31.7691 6.88895 26.9498C7.42938 22.13 9.49665 17.6093 12.7888 14.0479C16.081 10.4864 20.4256 8.0709 25.1882 7.15405M33.8016 7.17249C36.9997 7.78842 40.0283 9.08417 42.6823 10.9721C45.3362 12.86 47.5537 15.2959 49.1846 18.1151C50.8156 20.9344 51.822 24.0711 52.1356 27.3131C52.4491 30.555 52.0626 33.8264 51.0022 36.906" stroke="#313C4E" stroke-width="3.6875" stroke-linecap="round"/>
<path d="M24.583 28.271V23.8767C24.583 21.2122 26.7841 19.0522 29.4997 19.0522C32.2152 19.0522 34.4163 21.2122 34.4163 23.8767V28.271M23.3538 28.271H35.6455C37.0074 28.271 38.1038 29.3674 38.1038 30.7293V37.4897C38.1038 38.8517 37.0074 39.9481 35.6455 39.9481H23.3538C21.9919 39.9481 20.8955 38.8517 20.8955 37.4897V30.7293C20.8955 29.3674 21.9919 28.271 23.3538 28.271Z" stroke="#313C4E" stroke-width="3.6875"/>
</svg>
