<svg width="24" height="24" viewBox="0 0 24 24" fill="none" xmlns="http://www.w3.org/2000/svg">
<path d="M23.2969 16.9688C23.6719 17.1562 23.9531 17.5781 23.9531 18.0469C23.9531 18.0938 23.9531 18.1875 23.9531 18.2812L22.8281 23.1562C22.6875 23.6719 22.2656 24 21.75 24C9.70312 24 0 14.2969 0 2.25C0 1.73438 0.328125 1.3125 0.84375 1.17188L5.71875 0.046875C5.8125 0.046875 5.90625 0 5.95312 0C6.42188 0 6.84375 0.28125 7.03125 0.703125L9.28125 5.95312C9.32812 6.09375 9.375 6.23438 9.375 6.375C9.375 6.75 9.1875 7.07812 8.95312 7.26562L6.09375 9.60938C7.82812 13.2656 10.7344 16.1719 14.3906 17.9062L16.7344 15.0469C16.9219 14.8125 17.25 14.625 17.5781 14.625C17.7656 14.625 17.9062 14.6719 18.0469 14.7188L23.2969 16.9688Z" fill="white"/>
</svg>
