<svg width="16" height="16" viewBox="0 0 16 16" fill="none" xmlns="http://www.w3.org/2000/svg">
<g clip-path="url(#clip0_437_375)">
<path d="M8.68667 1.24665L1.36 0.13332C1.02 0.079987 0.673333 0.17332 0.413333 0.39332C0.153333 0.619987 0 0.946653 0 1.28665V15.3333C0 15.7 0.3 16 0.666667 16H2.83333V12.5C2.83333 11.8533 3.35333 11.3333 4 11.3333H5.66667C6.31333 11.3333 6.83333 11.8533 6.83333 12.5V16H9.66667V2.39999C9.66667 1.82665 9.25333 1.33999 8.68667 1.24665ZM3.66667 9.83332H2.66667C2.39067 9.83332 2.16667 9.60932 2.16667 9.33332C2.16667 9.05732 2.39067 8.83332 2.66667 8.83332H3.66667C3.94267 8.83332 4.16667 9.05732 4.16667 9.33332C4.16667 9.60932 3.94267 9.83332 3.66667 9.83332ZM3.66667 7.83332H2.66667C2.39067 7.83332 2.16667 7.60932 2.16667 7.33332C2.16667 7.05732 2.39067 6.83332 2.66667 6.83332H3.66667C3.94267 6.83332 4.16667 7.05732 4.16667 7.33332C4.16667 7.60932 3.94267 7.83332 3.66667 7.83332ZM3.66667 5.83332H2.66667C2.39067 5.83332 2.16667 5.60932 2.16667 5.33332C2.16667 5.05732 2.39067 4.83332 2.66667 4.83332H3.66667C3.94267 4.83332 4.16667 5.05732 4.16667 5.33332C4.16667 5.60932 3.94267 5.83332 3.66667 5.83332ZM3.66667 3.83332H2.66667C2.39067 3.83332 2.16667 3.60932 2.16667 3.33332C2.16667 3.05732 2.39067 2.83332 2.66667 2.83332H3.66667C3.94267 2.83332 4.16667 3.05732 4.16667 3.33332C4.16667 3.60932 3.94267 3.83332 3.66667 3.83332ZM7 9.83332H6C5.724 9.83332 5.5 9.60932 5.5 9.33332C5.5 9.05732 5.724 8.83332 6 8.83332H7C7.276 8.83332 7.5 9.05732 7.5 9.33332C7.5 9.60932 7.276 9.83332 7 9.83332ZM7 7.83332H6C5.724 7.83332 5.5 7.60932 5.5 7.33332C5.5 7.05732 5.724 6.83332 6 6.83332H7C7.276 6.83332 7.5 7.05732 7.5 7.33332C7.5 7.60932 7.276 7.83332 7 7.83332ZM7 5.83332H6C5.724 5.83332 5.5 5.60932 5.5 5.33332C5.5 5.05732 5.724 4.83332 6 4.83332H7C7.276 4.83332 7.5 5.05732 7.5 5.33332C7.5 5.60932 7.276 5.83332 7 5.83332ZM7 3.83332H6C5.724 3.83332 5.5 3.60932 5.5 3.33332C5.5 3.05732 5.724 2.83332 6 2.83332H7C7.276 2.83332 7.5 3.05732 7.5 3.33332C7.5 3.60932 7.276 3.83332 7 3.83332Z" fill="white"/>
<path d="M15.0787 7.22789L10.332 6.23389V15.9999H14.832C15.4754 15.9999 15.9987 15.4766 15.9987 14.8332V8.36789C15.9987 7.81722 15.6234 7.34855 15.0787 7.22789ZM13.4987 13.9999H12.4987C12.2227 13.9999 11.9987 13.7759 11.9987 13.4999C11.9987 13.2239 12.2227 12.9999 12.4987 12.9999H13.4987C13.7747 12.9999 13.9987 13.2239 13.9987 13.4999C13.9987 13.7759 13.7747 13.9999 13.4987 13.9999ZM13.4987 11.9999H12.4987C12.2227 11.9999 11.9987 11.7759 11.9987 11.4999C11.9987 11.2239 12.2227 10.9999 12.4987 10.9999H13.4987C13.7747 10.9999 13.9987 11.2239 13.9987 11.4999C13.9987 11.7759 13.7747 11.9999 13.4987 11.9999ZM13.4987 9.99989H12.4987C12.2227 9.99989 11.9987 9.77589 11.9987 9.49989C11.9987 9.22389 12.2227 8.99989 12.4987 8.99989H13.4987C13.7747 8.99989 13.9987 9.22389 13.9987 9.49989C13.9987 9.77589 13.7747 9.99989 13.4987 9.99989Z" fill="white"/>
</g>
<defs>
<clipPath id="clip0_437_375">
<rect width="16" height="16" fill="white"/>
</clipPath>
</defs>
</svg>
