<svg width="12" height="12" viewBox="0 0 12 12" fill="none" xmlns="http://www.w3.org/2000/svg">
<path d="M11.3708 9.46791L2.22497 0.322105C1.82609 -0.0767692 1.17942 -0.0767692 0.781169 0.322105L0.299155 0.803371C-0.0997185 1.20237 -0.0997185 1.84904 0.299155 2.24729L9.44496 11.3931C9.84396 11.792 10.4906 11.792 10.8889 11.3931L11.3701 10.9118C11.7698 10.5136 11.7698 9.86678 11.3708 9.46791Z" fill="#F44336"/>
<path d="M9.44496 0.322499L0.299155 9.46829C-0.0997184 9.86716 -0.0997184 10.514 0.299155 10.9122L0.780421 11.3935C1.17942 11.7924 1.82609 11.7924 2.22434 11.3935L11.3708 2.24831C11.7698 1.84944 11.7698 1.20276 11.3708 0.804513L10.8895 0.323247C10.4906 -0.0763743 9.84395 -0.0763743 9.44496 0.322499Z" fill="#F44336"/>
</svg>
