<svg width="32" height="32" viewBox="0 0 32 32" fill="none" xmlns="http://www.w3.org/2000/svg">
<g clip-path="url(#clip0_39_2165)">
<path d="M31.0621 30.1247H30.0621V11.625C30.0621 11.1072 29.6423 10.6875 29.1246 10.6875H25.3746C24.8569 10.6875 24.4372 11.1072 24.4372 11.625V30.1247H22.5622V17.8749C22.5622 17.3572 22.1424 16.9374 21.6247 16.9374H17.8748C17.357 16.9374 16.9373 17.3572 16.9373 17.8749V30.1247H15.0623V21.3124C15.0623 20.7946 14.6425 20.3749 14.1248 20.3749H10.3749C9.85711 20.3749 9.43737 20.7946 9.43737 21.3124V30.1247H7.5624V23.5623C7.5624 23.0446 7.14265 22.6248 6.62491 22.6248H2.87496C2.35722 22.6248 1.93747 23.0446 1.93747 23.5623V30.1247H0.937487C0.419744 30.1247 0 30.5445 0 31.0622C0 31.58 0.419744 31.9997 0.937487 31.9997H31.0621C31.5798 31.9997 31.9996 31.58 31.9996 31.0622C31.9996 30.5445 31.5798 30.1247 31.0621 30.1247Z" fill="#87CB28"/>
<path d="M0.937487 20.1449C6.78853 20.1449 13.1336 18.0436 18.8039 14.2279C23.2448 11.2395 26.9466 7.42188 29.2461 3.51275L30.1566 6.91064C30.2688 7.32951 30.8108 7.69138 31.3048 7.57351C31.8084 7.45338 32.1016 6.92545 31.9676 6.42533L30.4325 0.696037C30.2984 0.195981 29.7846 -0.10089 29.2843 0.0331705L23.555 1.56834C23.0549 1.70234 22.7581 2.21639 22.8921 2.71651C23.0262 3.21663 23.54 3.5135 24.0403 3.37938L27.7312 2.39039C25.5859 6.11821 22.0405 9.78991 17.7571 12.6723C12.3929 16.282 6.4196 18.2699 0.937487 18.2699C0.419744 18.2699 0 18.6897 0 19.2074C0 19.7252 0.419744 20.1449 0.937487 20.1449Z" fill="#87CB28"/>
</g>
<defs>
<clipPath id="clip0_39_2165">
<rect width="32" height="32" fill="white"/>
</clipPath>
</defs>
</svg>
