<svg width="44" height="44" viewBox="0 0 44 44" fill="none" xmlns="http://www.w3.org/2000/svg">
<g clip-path="url(#clip0_39_211)">
<path d="M24.5172 38.6875C24.1147 39.0152 23.7101 39.2726 23.303 39.467C23.0264 39.4966 22.7481 39.5183 22.4683 39.5347V36.2898C21.7991 35.7421 21.126 35.1733 20.4508 34.5889V39.5352C20.1711 39.5183 19.8927 39.4965 19.6169 39.4669C19.2097 39.2725 18.8045 39.0151 18.402 38.6874C17.0899 37.6196 15.8618 35.8169 14.92 33.4968H19.2084C18.4775 32.8434 17.7459 32.1702 17.0144 31.4795H14.2148C13.8804 30.3676 13.6114 29.1685 13.4064 27.9108C12.6098 27.0867 11.8362 26.2605 11.0849 25.4357C11.2536 27.5831 11.5997 29.6203 12.1152 31.4795H6.96205C5.51924 29.1475 4.6248 26.4445 4.45535 23.5405H9.40234C8.81785 22.8654 8.24909 22.1922 7.70206 21.5231H4.45543C4.525 20.3331 4.72274 19.1799 5.02284 18.0694C4.33787 17.1349 3.69555 16.2142 3.10325 15.3125C2.22258 17.5493 1.7334 19.9831 1.7334 22.5324C1.73399 33.4272 10.5642 42.2567 21.459 42.2574C24.0077 42.2574 26.4415 41.7682 28.6775 40.8882C27.4764 40.0982 26.2404 39.2201 24.9836 38.2686C24.8291 38.4176 24.6742 38.5595 24.5172 38.6875ZM9.41295 34.5786C9.0675 34.2331 8.73911 33.8706 8.42457 33.4969H12.77C13.0937 34.3796 13.4497 35.2201 13.8483 35.9924C14.3178 36.9 14.838 37.7255 15.406 38.4571C13.1377 37.5948 11.1007 36.265 9.41295 34.5786Z" fill="#313C4E"/>
<path d="M7.12012 8.99517C7.55094 9.76678 8.0408 10.5707 8.58001 11.3987C8.84927 11.0861 9.12244 10.7774 9.41464 10.4852C11.1057 8.79548 13.1474 7.463 15.4208 6.60076C14.3642 7.95753 13.4757 9.64065 12.7685 11.5662H8.68712C9.11913 12.2241 9.58478 12.898 10.0779 13.5835H12.1223C11.9365 14.2527 11.7769 14.9489 11.6331 15.6607C12.1735 16.3555 12.739 17.0582 13.3274 17.7661C13.5396 16.2832 13.8376 14.8746 14.2265 13.5835H20.4527V21.5224H16.6201C17.2434 22.1969 17.8817 22.87 18.5351 23.5399H20.4527V25.4575C21.1225 26.1103 21.7957 26.7499 22.4701 27.3724V23.5399H29.9238C29.8411 26.4359 29.4018 29.139 28.6971 31.4788H27.2201C28.1895 32.2596 29.1463 32.9945 30.0822 33.6768C30.1052 33.615 30.132 33.5585 30.155 33.4962H34.4966C34.1813 33.8698 33.8536 34.2324 33.5082 34.5778C33.2166 34.8694 32.9105 35.1465 32.598 35.4157C33.4248 35.9542 34.2272 36.4428 34.997 36.8736C38.8065 33.2775 41.1877 28.184 41.1877 22.5318C41.187 11.6371 32.3562 2.80634 21.4608 2.80566C15.8084 2.80634 10.7163 5.18691 7.12012 8.99517ZM35.9589 31.479H30.8004C31.4664 29.0786 31.8696 26.3927 31.9477 23.54H38.4656C38.2962 26.444 37.4017 29.1469 35.9589 31.479ZM35.9576 13.5835C37.4011 15.9155 38.2955 18.6192 38.4655 21.5225H31.9411C31.8623 18.6724 31.471 15.9825 30.805 13.5835H35.9576ZM33.5073 10.4852C33.8528 10.8307 34.1805 11.1925 34.495 11.5662H30.151C29.8273 10.6842 29.4706 9.84366 29.0726 9.07137C28.6031 8.16445 28.083 7.33899 27.5156 6.60671C29.7832 7.46895 31.8197 8.79947 33.5073 10.4852ZM22.47 5.52838C22.7504 5.54545 23.029 5.56711 23.3054 5.59667C23.7126 5.79042 24.1164 6.04788 24.519 6.3755C25.8311 7.4427 27.0585 9.24601 28.0002 11.5661H22.47V5.52838ZM22.47 13.5835H28.7055C29.4102 15.9227 29.8469 18.6291 29.9303 21.5225H22.47V13.5835ZM18.4037 6.3755C18.8063 6.04779 19.2102 5.79042 19.6174 5.59599C19.8938 5.56643 20.1723 5.54477 20.4526 5.5277V11.5662H14.9329C15.1556 11.0164 15.3894 10.4859 15.6422 9.99731C16.4526 8.42641 17.4062 7.19051 18.4037 6.3755Z" fill="#313C4E"/>
<path d="M43.1863 36.0833C42.7778 34.9819 42.2104 33.7914 41.5156 32.5292C41.0408 33.4762 40.5024 34.387 39.9034 35.2525C40.2074 35.881 40.4623 36.472 40.6638 37.0171C41.0743 38.1171 41.2594 39.0345 41.2561 39.6479C41.2561 39.9388 41.2174 40.1575 41.1668 40.3047C41.1156 40.4524 41.0618 40.5293 41 40.593C40.9376 40.6534 40.8614 40.7065 40.713 40.7584C40.5666 40.8083 40.3479 40.847 40.0569 40.847C39.4777 40.8497 38.6267 40.6862 37.6081 40.3217C36.5876 39.9598 35.397 39.4062 34.0908 38.6799C29.6127 36.191 23.7963 31.6715 18.0612 25.9325C12.3222 20.1975 7.80272 14.381 5.31309 9.9022C4.58684 8.59597 4.03387 7.40603 3.67134 6.38546C3.30754 5.36693 3.14335 4.5159 3.14598 3.9366C3.14598 3.64499 3.18539 3.42635 3.23534 3.28051C3.28656 3.13212 3.33982 3.0566 3.4008 2.99358C3.46519 2.93123 3.5413 2.87729 3.68977 2.82616C3.83621 2.77621 4.05485 2.7368 4.34714 2.7368C4.95982 2.73357 5.87727 2.91874 6.97531 3.32791C7.52233 3.53015 8.11607 3.78625 8.74786 4.09094C9.61342 3.49201 10.5222 2.95357 11.4699 2.47875C10.205 1.78189 9.01186 1.21389 7.90856 0.805402C6.61745 0.330579 5.44526 0.0507823 4.34722 0.046875C3.825 0.0476395 3.31535 0.113299 2.82677 0.27817C2.33955 0.442277 1.87449 0.714175 1.49829 1.09242C1.12132 1.46735 0.850098 1.93172 0.68718 2.41835C0.522394 2.90626 0.456734 3.41523 0.456055 3.93668C0.459367 4.97433 0.70952 6.07687 1.13703 7.28592C1.56649 8.49362 2.18181 9.80443 2.96268 11.2098C5.63808 16.0109 10.2772 21.9496 16.1593 27.8344C22.0441 33.7165 27.9828 38.3555 32.7832 41.031C34.1893 41.8118 35.5001 42.4271 36.7078 42.8567C37.9167 43.2836 39.0194 43.5337 40.0569 43.537C40.5784 43.537 41.0874 43.4707 41.5753 43.3065C42.0613 43.1431 42.5256 42.8725 42.9012 42.4955C43.2795 42.1185 43.5513 41.6536 43.7149 41.1676C43.8797 40.679 43.9455 40.1694 43.9461 39.648C43.9422 38.5486 43.6623 37.3757 43.1863 36.0833Z" fill="#313C4E"/>
</g>
<defs>
<clipPath id="clip0_39_211">
<rect width="43.49" height="43.49" fill="white" transform="translate(0.458984 0.0478516)"/>
</clipPath>
</defs>
</svg>
