<svg width="36" height="28" viewBox="0 0 36 28" fill="none" xmlns="http://www.w3.org/2000/svg">
<path d="M32 0H4C2.075 0 0.5 1.575 0.5 3.5V24.5C0.5 26.425 2.075 28 4 28H32C33.925 28 35.5 26.425 35.5 24.5V3.5C35.5 1.575 33.925 0 32 0ZM31.3 7.4375L19.855 14.595C18.7175 15.3125 17.2825 15.3125 16.145 14.595L4.7 7.4375C4.52452 7.33899 4.37086 7.20591 4.2483 7.04629C4.12575 6.88668 4.03686 6.70386 3.98701 6.5089C3.93715 6.31394 3.92738 6.11089 3.95827 5.91204C3.98917 5.71319 4.06009 5.52267 4.16674 5.35203C4.2734 5.18138 4.41357 5.03415 4.57877 4.91924C4.74397 4.80433 4.93077 4.72414 5.12787 4.68352C5.32496 4.6429 5.52824 4.64269 5.72542 4.68291C5.9226 4.72313 6.10956 4.80293 6.275 4.9175L18 12.25L29.725 4.9175C29.8904 4.80293 30.0774 4.72313 30.2746 4.68291C30.4718 4.64269 30.675 4.6429 30.8721 4.68352C31.0692 4.72414 31.256 4.80433 31.4212 4.91924C31.5864 5.03415 31.7266 5.18138 31.8333 5.35203C31.9399 5.52267 32.0108 5.71319 32.0417 5.91204C32.0726 6.11089 32.0628 6.31394 32.013 6.5089C31.9631 6.70386 31.8742 6.88668 31.7517 7.04629C31.6291 7.20591 31.4755 7.33899 31.3 7.4375Z" fill="#6EB012"/>
</svg>
