<svg width="42" height="42" viewBox="0 0 42 42" fill="none" xmlns="http://www.w3.org/2000/svg">
<path d="M16.6899 23.3483H12.2412C11.5228 23.3483 11.3018 23.072 11.3018 22.4088C11.3018 20.6127 11.3018 18.7614 11.3018 16.9654C11.3018 16.247 11.5781 15.9706 12.2412 15.9706H16.6899V12.0193C16.6347 10.2785 17.0491 8.51012 17.9057 6.93512C18.8175 5.36012 20.2544 4.19959 21.9123 3.61933C23.0452 3.20485 24.1504 3.03906 25.3386 3.03906H29.732C30.3675 3.03906 30.6439 3.31538 30.6439 3.9509V9.06275C30.6439 9.69827 30.3675 9.97459 29.732 9.97459C28.5162 9.97459 27.3004 9.97459 26.0847 10.0299C24.8689 10.0851 24.2333 10.6101 24.2333 11.8812C24.1781 13.2351 24.2333 14.5338 24.2333 15.9154H29.4004C30.1189 15.9154 30.3952 16.1917 30.3952 16.9101V22.3535C30.3952 23.072 30.1741 23.3483 29.4004 23.3483H24.2886V37.9654C24.2886 38.7391 24.0123 38.9878 23.2662 38.9878H17.657C16.9939 38.9878 16.7175 38.7114 16.7175 38.0483V23.3483H16.6899Z" fill="url(#paint0_linear_1144_9591)"/>
<defs>
<linearGradient id="paint0_linear_1144_9591" x1="13.6095" y1="10.9196" x2="32.7599" y2="30.0697" gradientUnits="userSpaceOnUse">
<stop stop-color="#42A5F5"/>
<stop offset="1" stop-color="#1565C0"/>
</linearGradient>
</defs>
</svg>
