<svg width="89" height="89" viewBox="0 0 89 89" fill="none" xmlns="http://www.w3.org/2000/svg">
<path d="M78.474 29.3072C77.8688 28.1708 76.6932 27.4648 75.4056 27.4648H65.5305C64.706 22.828 60.6482 19.2949 55.778 19.2949C50.9079 19.2949 46.85 22.828 46.0256 27.4648H36.0209C36.8055 26.264 37.2638 24.8313 37.2638 23.293C37.2638 19.0756 33.8327 15.6445 29.6153 15.6445C25.3979 15.6445 21.9669 19.0756 21.9669 23.293C21.9669 24.8313 22.4251 26.264 23.2098 27.4648H15.0527C13.7652 27.4648 12.5896 28.1708 11.9843 29.3072C11.3792 30.4436 11.4494 31.8132 12.1679 32.8815L35.4949 67.57V87.2617C35.4949 87.8479 35.7902 88.3946 36.2806 88.7156C36.5679 88.9039 36.8998 89 37.2333 89C37.4687 89 37.7049 88.9522 37.9273 88.8554L53.9194 81.8913C54.5536 81.6151 54.9636 80.9893 54.9636 80.2976V67.5698L78.2905 32.8813C79.0089 31.8132 79.0793 30.4436 78.474 29.3072ZM55.778 22.7715C58.7221 22.7715 61.2086 24.7606 61.9691 27.4648H49.5871C50.3475 24.7606 52.8341 22.7715 55.778 22.7715ZM29.6155 19.1211C31.9158 19.1211 33.7874 20.9927 33.7874 23.293C33.7874 25.5932 31.9158 27.4648 29.6155 27.4648C27.3152 27.4648 25.4436 25.5932 25.4436 23.293C25.4436 20.9927 27.3152 19.1211 29.6155 19.1211ZM51.7827 66.0696C51.59 66.3563 51.4869 66.694 51.4869 67.0396V79.1587L38.9713 84.6088V68.7779H45.2512C46.2112 68.7779 46.9894 67.9996 46.9894 67.0396C46.9894 66.0795 46.2112 65.3013 45.2512 65.3013H38.1588L20.6642 39.2852H55.778C56.7381 39.2852 57.5163 38.5069 57.5163 37.5469C57.5163 36.5868 56.7381 35.8086 55.778 35.8086H18.3264L15.0534 30.9414H75.4055L51.7827 66.0696Z" fill="#6EB012"/>
<path d="M51.1621 0C46.9447 0 43.5137 3.43102 43.5137 7.64844C43.5137 11.8659 46.9449 15.2969 51.1621 15.2969C55.3795 15.2969 58.8105 11.8659 58.8105 7.64844C58.8105 3.43102 55.3795 0 51.1621 0ZM51.1621 11.8203C48.8618 11.8203 46.9902 9.9487 46.9902 7.64844C46.9902 5.34817 48.8618 3.47656 51.1621 3.47656C53.4624 3.47656 55.334 5.34817 55.334 7.64844C55.334 9.9487 53.4624 11.8203 51.1621 11.8203Z" fill="#6EB012"/>
<path d="M69.7393 8.40234C68.7792 8.40234 68.001 9.18057 68.001 10.1406V20.02C68.001 20.9802 68.7792 21.7584 69.7393 21.7584C70.6993 21.7584 71.4775 20.9802 71.4775 20.0201V10.1406C71.4775 9.18057 70.6993 8.40234 69.7393 8.40234Z" fill="#6EB012"/>
<path d="M70.9682 3.20463C70.6449 2.88131 70.1964 2.69531 69.7393 2.69531C69.2821 2.69531 68.8336 2.88131 68.5103 3.20463C68.187 3.52795 68.001 3.97643 68.001 4.43359C68.001 4.89076 68.187 5.33924 68.5103 5.66256C68.8336 5.98588 69.2821 6.17188 69.7393 6.17188C70.1964 6.17188 70.6449 5.98588 70.9682 5.66256C71.2915 5.33924 71.4775 4.89076 71.4775 4.43359C71.4775 3.97643 71.2915 3.52795 70.9682 3.20463Z" fill="#6EB012"/>
<path d="M35.5264 2.2168C34.5663 2.2168 33.7881 2.99503 33.7881 3.95508V11.082C33.7881 12.0421 34.5663 12.8203 35.5264 12.8203C36.4864 12.8203 37.2646 12.0421 37.2646 11.082V3.95508C37.2646 2.99503 36.4864 2.2168 35.5264 2.2168Z" fill="#6EB012"/>
<path d="M11.8545 0C10.8944 0 10.1162 0.778229 10.1162 1.73828V13.0663C10.1162 14.0264 10.8944 14.8046 11.8545 14.8046C12.8145 14.8046 13.5928 14.0264 13.5928 13.0663V1.73828C13.5928 0.778229 12.8145 0 11.8545 0Z" fill="#6EB012"/>
<path d="M13.0835 18.357C12.7601 18.0319 12.3117 17.8477 11.8545 17.8477C11.3973 17.8477 10.9488 18.0319 10.6255 18.357C10.3022 18.6803 10.1162 19.127 10.1162 19.5859C10.1162 20.0431 10.3022 20.4916 10.6255 20.8149C10.9488 21.1382 11.3973 21.3242 11.8545 21.3242C12.3117 21.3242 12.7601 21.1382 13.0835 20.8149C13.4068 20.4916 13.5928 20.0431 13.5928 19.5859C13.5928 19.127 13.4068 18.6803 13.0835 18.357Z" fill="#6EB012"/>
<path d="M64.7368 36.3179C64.4135 35.9946 63.965 35.8086 63.5078 35.8086C63.0489 35.8086 62.6004 35.9946 62.2789 36.3179C61.9538 36.6412 61.7695 37.0897 61.7695 37.5469C61.7695 38.004 61.9538 38.4525 62.2789 38.7758C62.6022 39.0992 63.0489 39.2852 63.5078 39.2852C63.965 39.2852 64.4117 39.0992 64.7368 38.7758C65.0601 38.4525 65.2461 38.004 65.2461 37.5469C65.2461 37.0897 65.0601 36.6412 64.7368 36.3179Z" fill="#6EB012"/>
</svg>
