<svg width="38" height="38" viewBox="0 0 38 38" fill="none" xmlns="http://www.w3.org/2000/svg">
<path d="M31.6678 28.5002H28.5011V14.646L19.0011 20.5835L9.50112 14.646V28.5002H6.33445V9.50016H8.23445L19.0011 16.2293L29.7678 9.50016H31.6678M31.6678 6.3335H6.33445C4.57695 6.3335 3.16779 7.74266 3.16779 9.50016V28.5002C3.16779 29.34 3.50142 30.1455 4.09528 30.7393C4.68915 31.3332 5.4946 31.6668 6.33445 31.6668H31.6678C32.5076 31.6668 33.3131 31.3332 33.907 30.7393C34.5008 30.1455 34.8345 29.34 34.8345 28.5002V9.50016C34.8345 8.66031 34.5008 7.85486 33.907 7.26099C33.3131 6.66713 32.5076 6.3335 31.6678 6.3335Z" fill="white"/>
</svg>
