<svg width="32" height="32" viewBox="0 0 32 32" fill="none" xmlns="http://www.w3.org/2000/svg">
<path d="M29.0641 19.701C28.6431 19.524 28.1541 19.421 27.6411 19.421C27.0641 19.421 26.5181 19.551 26.0301 19.783L26.0531 19.773L20.2751 22.368C20.2781 22.321 20.3011 22.281 20.3011 22.234C20.2861 20.863 19.1721 19.758 17.7991 19.758C17.7301 19.758 17.6621 19.761 17.5951 19.766L17.6041 19.765H13.8211L9.0611 18.37C8.9991 18.35 8.9281 18.339 8.8541 18.339C8.8531 18.339 8.8511 18.339 8.8501 18.339H6.6811V17.582C6.6811 17.168 6.3451 16.832 5.9311 16.832H2.0481C1.6341 16.832 1.2981 17.168 1.2981 17.582V29.79C1.2981 30.204 1.6341 30.54 2.0481 30.54H5.9311C6.3451 30.54 6.6811 30.204 6.6811 29.79V28.785C8.4991 29.069 10.1261 29.527 11.6681 30.152L11.5191 30.098C12.6691 30.514 13.9971 30.754 15.3811 30.754C15.3881 30.754 15.3951 30.754 15.4021 30.754H15.4011C15.4061 30.754 15.4121 30.754 15.4181 30.754C17.0221 30.754 18.5511 30.435 19.9461 29.856L19.8681 29.885C21.1111 29.332 22.1661 28.749 23.1651 28.086L23.0831 28.137C23.4211 27.928 23.7571 27.719 24.0971 27.518C25.7301 26.551 27.0421 25.702 28.2261 24.846C28.8051 24.434 29.3091 24.027 29.7891 23.593L29.7751 23.606C30.1481 23.304 30.4461 22.924 30.6461 22.49L30.6541 22.471C30.6851 22.392 30.7021 22.301 30.7021 22.205C30.7021 22.148 30.6961 22.093 30.6841 22.04L30.6851 22.045C30.5391 21.028 29.9301 20.179 29.0821 19.708L29.0661 19.7L29.0641 19.701ZM5.1811 29.041H2.7981V18.332H5.1811V29.041ZM28.7191 22.541C28.3071 22.911 27.8591 23.27 27.3911 23.603L27.3441 23.635C26.2011 24.461 24.9261 25.285 23.3301 26.231C22.9821 26.436 22.6391 26.649 22.2931 26.862C21.4391 27.435 20.4561 27.982 19.4291 28.448L19.2991 28.501C18.1471 28.975 16.8091 29.249 15.4071 29.249C14.2041 29.249 13.0481 29.046 11.9711 28.674L12.0451 28.696C10.4901 28.048 8.6821 27.551 6.7971 27.289L6.6801 27.276V19.84H8.7421L13.5021 21.235C13.5641 21.255 13.6351 21.266 13.7091 21.266C13.7101 21.266 13.7121 21.266 13.7131 21.266H17.6031C18.4861 21.266 18.8001 21.787 18.8001 22.235C18.8001 22.683 18.4861 23.204 17.6031 23.204H10.7941C10.3801 23.204 10.0441 23.54 10.0441 23.954C10.0441 24.368 10.3801 24.704 10.7941 24.704H18.5751C18.5761 24.704 18.5781 24.704 18.5791 24.704C18.6891 24.704 18.7931 24.68 18.8861 24.636L18.8821 24.638L26.6771 21.138C26.9651 21.006 27.3021 20.929 27.6571 20.929C27.9221 20.929 28.1771 20.972 28.4151 21.051L28.3981 21.046C28.7811 21.276 29.0561 21.65 29.1501 22.092L29.1521 22.103C29.0161 22.262 28.8741 22.405 28.7231 22.538L28.7181 22.542L28.7191 22.541ZM17.0001 17.767C21.5491 17.767 25.2361 14.079 25.2361 9.52997C25.2361 4.98097 21.5481 1.29297 16.9991 1.29297C12.4501 1.29297 8.7621 4.97997 8.7621 9.52897C8.7671 14.076 12.4521 17.761 16.9991 17.766L17.0001 17.767ZM10.6691 11.75H13.2441C13.5061 13.328 14.0991 14.731 14.9511 15.939L14.9301 15.907C12.9331 15.244 11.3801 13.725 10.6841 11.796L10.6691 11.749V11.75ZM18.9601 6.26397L15.0411 6.24497C15.4381 4.97497 16.1121 3.88897 16.9971 3.01497L16.9981 3.01397C17.8851 3.89497 18.5611 4.98697 18.9451 6.20897L18.9601 6.26397ZM19.3111 7.76597C19.4031 8.29397 19.4571 8.90397 19.4591 9.52697V9.52997C19.4591 9.78497 19.4341 10.012 19.4191 10.251H14.5801C14.5651 10.012 14.5401 9.78497 14.5401 9.52997C14.5431 8.89697 14.5971 8.27997 14.7001 7.67797L14.6911 7.74397L19.3111 7.76597ZM23.7361 9.52897C23.7241 9.79597 23.6981 10.044 23.6581 10.288L23.6631 10.25H20.9051C20.9191 10.005 20.9581 9.78797 20.9581 9.52897C20.9551 8.90697 20.9071 8.29797 20.8191 7.70297L20.8281 7.77297L23.4781 7.78597C23.6331 8.30597 23.7271 8.90497 23.7351 9.52397L23.7361 9.52897ZM14.7661 11.75H19.2341C18.9301 13.443 18.1331 14.913 17.0001 16.046C15.8661 14.913 15.0701 13.443 14.7731 11.799L14.7661 11.75ZM13.0941 10.25H10.3351C10.3011 10.044 10.2751 9.79597 10.2631 9.54397L10.2621 9.52897C10.2721 8.88197 10.3721 8.26197 10.5511 7.67597L10.5391 7.72297L13.1731 7.73597C13.0911 8.27297 13.0431 8.89397 13.0401 9.52597V9.52897C13.0401 9.78797 13.0811 10.004 13.0941 10.25ZM19.0701 15.907C19.9011 14.731 20.4941 13.327 20.7481 11.809L20.7561 11.75H23.3301C22.6191 13.725 21.0671 15.244 19.1171 15.893L19.0701 15.907ZM22.8661 6.28297L20.5171 6.27197C20.1971 5.08397 19.7011 4.04397 19.0501 3.12097L19.0711 3.15197C20.7111 3.69697 22.0381 4.80897 22.8491 6.24897L22.8661 6.28297ZM14.9291 3.15197C14.3051 4.03397 13.8121 5.06197 13.5071 6.16897L13.4911 6.23797L11.1641 6.22697C11.9961 4.78097 13.3091 3.69097 14.8821 3.16597L14.9291 3.15197Z" fill="white"/>
</svg>
