<svg width="26" height="26" viewBox="0 0 26 26" fill="none" xmlns="http://www.w3.org/2000/svg">
<path d="M21.667 4.3335H4.33366C3.14199 4.3335 2.16699 5.3085 2.16699 6.50016V19.5002C2.16699 20.6918 3.14199 21.6668 4.33366 21.6668H21.667C22.8587 21.6668 23.8337 20.6918 23.8337 19.5002V6.50016C23.8337 5.3085 22.8587 4.3335 21.667 4.3335ZM21.2337 8.93766L14.1487 13.3685C13.4445 13.8127 12.5562 13.8127 11.852 13.3685L4.76699 8.93766C4.65836 8.87668 4.56324 8.7943 4.48737 8.69549C4.41151 8.59668 4.35648 8.48351 4.32562 8.36281C4.29475 8.24212 4.2887 8.11643 4.30783 7.99333C4.32695 7.87023 4.37086 7.75229 4.43688 7.64666C4.5029 7.54102 4.58968 7.44987 4.69195 7.37874C4.79421 7.30761 4.90985 7.25797 5.03186 7.23282C5.15387 7.20767 5.27972 7.20754 5.40178 7.23244C5.52384 7.25734 5.63958 7.30674 5.74199 7.37766L13.0003 11.9168L20.2587 7.37766C20.3611 7.30674 20.4768 7.25734 20.5989 7.23244C20.7209 7.20754 20.8468 7.20767 20.9688 7.23282C21.0908 7.25797 21.2064 7.30761 21.3087 7.37874C21.411 7.44987 21.4977 7.54102 21.5638 7.64666C21.6298 7.75229 21.6737 7.87023 21.6928 7.99333C21.7119 8.11643 21.7059 8.24212 21.675 8.36281C21.6442 8.48351 21.5891 8.59668 21.5133 8.69549C21.4374 8.7943 21.3423 8.87668 21.2337 8.93766Z" fill="white"/>
</svg>
