<svg width="20" height="20" viewBox="0 0 20 20" fill="none" xmlns="http://www.w3.org/2000/svg">
<g clip-path="url(#clip0_409_1042)">
<path d="M9.79 0C4.392 0 0 4.392 0 9.79C0 15.188 4.392 19.58 9.79 19.58C15.188 19.58 19.58 15.188 19.58 9.79C19.58 4.392 15.188 0 9.79 0ZM15.2616 7.21368L9.00484 13.4214C8.63679 13.7894 8.04792 13.814 7.65534 13.4459L4.34293 10.4279C3.95035 10.0599 3.92581 9.44649 4.26932 9.05391C4.63737 8.66133 5.25078 8.63679 5.64336 9.00484L8.26875 11.4094L13.863 5.81511C14.2556 5.42253 14.869 5.42253 15.2616 5.81511C15.6542 6.20769 15.6542 6.8211 15.2616 7.21368Z" fill="#BFF475"/>
</g>
<defs>
<clipPath id="clip0_409_1042">
<rect width="19.58" height="19.58" fill="white"/>
</clipPath>
</defs>
</svg>
