<svg width="24" height="24" viewBox="0 0 24 24" fill="none" xmlns="http://www.w3.org/2000/svg">
<g clip-path="url(#clip0_1_73)">
<path d="M13.4552 20.9222C13.2377 21.0993 13.0191 21.2383 12.7992 21.3433C12.6498 21.3593 12.4994 21.371 12.3483 21.3799V19.6269C11.9868 19.3311 11.6232 19.0238 11.2584 18.7081V21.3802C11.1073 21.371 10.9569 21.3593 10.8079 21.3433C10.5879 21.2383 10.369 21.0992 10.1516 20.9222C9.44278 20.3453 8.77935 19.3715 8.2706 18.1181H10.5872C10.1924 17.7651 9.79716 17.4015 9.40199 17.0283H7.88961C7.709 16.4277 7.56363 15.7799 7.4529 15.1005C7.02258 14.6553 6.60464 14.209 6.19878 13.7634C6.28995 14.9235 6.47689 16.024 6.75538 17.0283H3.97157C3.19214 15.7686 2.70896 14.3084 2.61741 12.7396H5.28985C4.97411 12.3749 4.66685 12.0112 4.37134 11.6497H2.61746C2.65504 11.0069 2.76186 10.3839 2.92398 9.78398C2.55395 9.27918 2.20695 8.78181 1.88699 8.29468C1.41123 9.50301 1.14697 10.8178 1.14697 12.195C1.14729 18.0805 5.91749 22.8503 11.8031 22.8507C13.1799 22.8507 14.4947 22.5865 15.7026 22.1111C15.0538 21.6843 14.3861 21.2099 13.7071 20.6959C13.6237 20.7764 13.54 20.8531 13.4552 20.9222ZM5.29559 18.7025C5.10897 18.5159 4.93157 18.32 4.76165 18.1182H7.10912C7.28399 18.595 7.47631 19.0491 7.69161 19.4663C7.94527 19.9566 8.22628 20.4025 8.53312 20.7977C7.30776 20.3319 6.20731 19.6135 5.29559 18.7025Z" fill="#313C4E"/>
<path d="M4.05725 4.88224C4.28999 5.29908 4.55462 5.73335 4.84591 6.18065C4.99137 6.01179 5.13894 5.84504 5.29679 5.68719C6.2103 4.77436 7.31328 4.05454 8.54143 3.58874C7.9706 4.32169 7.49063 5.23094 7.10858 6.27114H4.90377C5.13715 6.62658 5.3887 6.9906 5.65512 7.36095H6.75952C6.65912 7.72245 6.5729 8.09853 6.49521 8.48306C6.78719 8.85842 7.09265 9.23799 7.41051 9.62046C7.52514 8.81937 7.68615 8.05838 7.89622 7.36091H11.2597V11.6497H9.18931C9.52602 12.014 9.87082 12.3776 10.2238 12.7395H11.2597V13.7754C11.6216 14.1281 11.9852 14.4736 12.3496 14.8099V12.7395H16.3762C16.3315 14.304 16.0942 15.7643 15.7135 17.0283H14.9156C15.4393 17.4501 15.9561 17.8471 16.4617 18.2156C16.4741 18.1823 16.4886 18.1518 16.5011 18.1181H18.8464C18.6761 18.3199 18.4991 18.5158 18.3125 18.7024C18.155 18.8599 17.9896 19.0096 17.8208 19.155C18.2674 19.4459 18.7009 19.7099 19.1168 19.9426C21.1747 18 22.4611 15.2484 22.4611 12.1949C22.4607 6.30946 17.6902 1.53894 11.8043 1.53857C8.75082 1.53894 5.99996 2.82496 4.05725 4.88224ZM19.6364 17.0284H16.8497C17.2095 15.7316 17.4273 14.2807 17.4695 12.7396H20.9906C20.899 14.3084 20.4158 15.7685 19.6364 17.0284ZM19.6357 7.36095C20.4155 8.62072 20.8987 10.0813 20.9905 11.6497H17.4659C17.4234 10.11 17.212 8.65688 16.8522 7.36095H19.6357ZM18.312 5.68719C18.4987 5.87381 18.6757 6.06929 18.8456 6.27114H16.4989C16.324 5.7947 16.1313 5.34061 15.9163 4.9234C15.6627 4.43347 15.3817 3.98755 15.0752 3.59196C16.3002 4.05775 17.4004 4.77652 18.312 5.68719ZM12.3495 3.00943C12.501 3.01865 12.6515 3.03035 12.8008 3.04632C13.0208 3.15099 13.2389 3.29007 13.4564 3.46705C14.1652 4.04357 14.8283 5.01775 15.337 6.2711H12.3495V3.00943ZM12.3495 7.36095H15.718C16.0987 8.62462 16.3346 10.0866 16.3797 11.6497H12.3495V7.36095ZM10.1528 3.46705C10.3703 3.29002 10.5885 3.15099 10.8085 3.04595C10.9578 3.02998 11.1082 3.01828 11.2597 3.00906V6.27114H8.27786C8.39813 5.97416 8.52446 5.68756 8.66102 5.42362C9.09882 4.57499 9.61394 3.90734 10.1528 3.46705Z" fill="#313C4E"/>
<path d="M23.5406 19.5155C23.3199 18.9205 23.0134 18.2774 22.6381 17.5955C22.3815 18.1071 22.0907 18.5992 21.7671 19.0667C21.9314 19.4063 22.069 19.7255 22.1779 20.02C22.3996 20.6142 22.4997 21.1098 22.4979 21.4412C22.4979 21.5984 22.4769 21.7165 22.4496 21.796C22.422 21.8758 22.3929 21.9173 22.3595 21.9517C22.3258 21.9844 22.2846 22.0131 22.2045 22.0411C22.1254 22.0681 22.0072 22.089 21.85 22.089C21.5371 22.0904 21.0774 22.0021 20.5271 21.8052C19.9758 21.6097 19.3327 21.3106 18.6271 20.9183C16.2079 19.5737 13.0658 17.1322 9.96759 14.0319C6.86731 10.9338 4.42582 7.79161 3.08088 5.3721C2.68855 4.66645 2.38982 4.02363 2.19398 3.4723C1.99745 2.92207 1.90875 2.46233 1.91017 2.14938C1.91017 1.99186 1.93146 1.87374 1.95844 1.79496C1.98611 1.71479 2.01488 1.674 2.04783 1.63995C2.08261 1.60627 2.12373 1.57713 2.20394 1.54951C2.28305 1.52253 2.40116 1.50123 2.55905 1.50123C2.89003 1.49949 3.38566 1.59952 3.97883 1.82056C4.27434 1.92982 4.59509 2.06816 4.9364 2.23276C5.40398 1.90921 5.89492 1.61834 6.40688 1.36183C5.72358 0.985377 5.07901 0.678533 4.48299 0.457864C3.78551 0.201357 3.15228 0.0502065 2.5591 0.0480957C2.27699 0.0485087 2.00167 0.0839791 1.73773 0.173045C1.47452 0.261698 1.22329 0.408581 1.02006 0.612915C0.816416 0.815458 0.6699 1.06632 0.581889 1.32921C0.492869 1.59278 0.457398 1.86773 0.457031 2.14943C0.458821 2.70998 0.593957 3.30559 0.824905 3.95874C1.05691 4.61116 1.38931 5.31928 1.81115 6.07848C3.25644 8.67213 5.76254 11.8803 8.94015 15.0593C12.1192 18.237 15.3274 20.743 17.9207 22.1884C18.6802 22.6102 19.3884 22.9426 20.0408 23.1746C20.6939 23.4052 21.2895 23.5404 21.85 23.5422C22.1317 23.5422 22.4067 23.5063 22.6703 23.4176C22.9328 23.3293 23.1836 23.1831 23.3866 22.9795C23.5909 22.7759 23.7378 22.5247 23.8261 22.2622C23.9152 21.9982 23.9507 21.7229 23.951 21.4412C23.9489 20.8473 23.7977 20.2137 23.5406 19.5155Z" fill="#313C4E"/>
</g>
<defs>
<clipPath id="clip0_1_73">
<rect width="23.494" height="23.494" fill="white" transform="translate(0.45874 0.0483398)"/>
</clipPath>
</defs>
</svg>
