<svg width="82" height="82" viewBox="0 0 82 82" fill="none" xmlns="http://www.w3.org/2000/svg">
<g clip-path="url(#clip0_1214_1053)">
<path d="M40.5936 15.194C36.8046 17.8588 32.5103 20.8792 30.2093 25.8763C26.2128 34.5944 38.3873 44.1041 38.9076 44.5046C39.0285 44.5977 39.1733 44.6441 39.3176 44.6441C39.4709 44.6441 39.6243 44.5917 39.7489 44.4873C39.9906 44.2852 40.0591 43.9418 39.914 43.6622C39.87 43.5773 35.5 35.089 35.6624 28.9995C35.7198 26.8785 38.688 24.4725 41.8303 21.9252C44.7083 19.5921 47.9707 16.9477 49.8795 13.8543C54.0698 7.04504 49.4125 0.34952 49.3649 0.282574C49.1799 0.0227996 48.8385 -0.0712126 48.5465 0.0567528C48.2548 0.185519 48.0932 0.500868 48.1599 0.812693C48.1693 0.857057 49.075 5.28475 46.5548 9.8465C45.5166 11.7316 43.2354 13.336 40.5936 15.194Z" fill="#DB380E"/>
<path d="M56.5564 18.1974C56.8237 17.996 56.9022 17.6288 56.7406 17.3357C56.5787 17.0426 56.2263 16.9134 55.9134 17.0322C55.2697 17.2769 40.1514 23.1046 40.1514 30.1459C40.1514 34.9997 42.2248 37.5638 43.7387 39.4364C44.3326 40.1709 44.8452 40.8051 45.0142 41.3466C45.4899 42.907 44.363 45.7274 43.8891 46.6825C43.7525 46.9571 43.8194 47.2899 44.0518 47.4904C44.1774 47.5988 44.3342 47.6539 44.4911 47.6539C44.6247 47.6539 44.7589 47.6142 44.8749 47.5335C45.1348 47.3528 51.2278 43.0449 50.1351 37.8547C49.7279 35.8819 48.7585 34.4405 47.9031 33.1685C46.578 31.1978 45.6209 29.7743 47.0729 27.1452C48.7741 24.0785 56.4784 18.2556 56.5564 18.1974Z" fill="#DB380E"/>
<path d="M17.2038 47.7646C16.9447 48.5405 17.0671 49.3103 17.5573 49.9913C19.1962 52.2666 25.0014 53.5193 33.9042 53.5193C33.9047 53.5193 33.905 53.5193 33.9053 53.5193C35.1116 53.5193 36.3852 53.4956 37.6897 53.4489C51.9236 52.9394 57.203 48.505 57.4208 48.3165C57.6582 48.111 57.7216 47.7689 57.5741 47.4922C57.4264 47.2156 57.1082 47.0766 56.8041 47.1603C51.791 48.529 42.4303 49.0149 35.9375 49.0149C28.6724 49.0149 24.9724 48.4915 24.0666 48.1051C24.5313 47.4669 27.3981 46.3272 30.9506 45.6284C31.2901 45.5618 31.5235 45.2482 31.4898 44.9039C31.4562 44.5595 31.167 44.2969 30.8209 44.2969C28.7385 44.2969 18.2955 44.4641 17.2038 47.7646Z" fill="#73A1FB"/>
<path d="M64.833 43.1973C61.8971 43.1973 59.1131 44.6688 58.9959 44.7311C58.7244 44.8765 58.5867 45.1879 58.6612 45.487C58.736 45.7857 59.0045 45.9957 59.3125 45.996C59.3748 45.996 65.575 46.0468 66.1365 49.5893C66.6339 52.6454 60.2701 57.5971 57.776 59.2474C57.5066 59.4257 57.402 59.77 57.5271 60.0679C57.6336 60.3214 57.8804 60.48 58.1466 60.48C58.193 60.48 58.2401 60.4752 58.2869 60.4652C58.8788 60.3385 72.766 57.2783 71.2977 49.1927C70.4019 44.2375 67.2875 43.1973 64.833 43.1973Z" fill="#73A1FB"/>
<path d="M55.3093 58.2579C55.3577 57.9989 55.2499 57.7354 55.0344 57.5841L51.7045 55.2517C51.5421 55.138 51.337 55.1023 51.1464 55.1528C51.1116 55.1616 47.6295 56.077 42.574 56.6384C40.5675 56.8634 38.3202 56.9822 36.0745 56.9822C31.0203 56.9822 27.7156 56.3884 27.2343 55.9527C27.1706 55.8304 27.1908 55.7748 27.2021 55.7439C27.2896 55.5008 27.7582 55.2118 28.0603 55.0975C28.3939 54.974 28.5737 54.6117 28.4699 54.2716C28.3665 53.9309 28.0156 53.7306 27.6693 53.8137C24.3291 54.6197 22.6958 55.7469 22.8146 57.1638C23.0257 59.6761 28.8445 60.9655 33.7638 61.3063C34.4712 61.3547 35.2362 61.3792 36.0372 61.3792C36.0377 61.3792 36.038 61.3792 36.0385 61.3792C44.2183 61.3792 54.7048 58.8127 54.8095 58.7866C55.0656 58.7241 55.2608 58.5173 55.3093 58.2579Z" fill="#73A1FB"/>
<path d="M30.2054 63.6489C30.4577 63.4849 30.5694 63.1731 30.4799 62.8859C30.3907 62.5988 30.1221 62.4101 29.8204 62.4141C29.3728 62.426 25.4403 62.6034 25.165 65.1072C25.0817 65.8554 25.296 66.5391 25.8022 67.1389C27.2142 68.8122 31.0256 69.8068 37.4522 70.1793C38.2125 70.225 38.9847 70.2479 39.7479 70.2479C47.9183 70.2479 53.421 67.6897 53.6514 67.5808C53.8748 67.4751 54.0222 67.2555 54.0353 67.0089C54.0485 66.7622 53.9253 66.5282 53.7145 66.3993L49.5064 63.8304C49.3603 63.7413 49.1856 63.7119 49.019 63.746C48.9925 63.7516 46.3206 64.3057 42.2883 64.8531C41.5253 64.9569 40.5698 65.0096 39.4487 65.0096C35.4208 65.0096 30.9405 64.3515 30.0813 63.9206C30.0688 63.8402 30.0847 63.738 30.2054 63.6489Z" fill="#73A1FB"/>
<path d="M35.9401 77.9724C54.6551 77.9566 64.6996 74.6284 66.6346 72.534C67.3196 71.7931 67.3936 71.0916 67.3355 70.6334C67.1917 69.5059 66.1646 68.8156 66.0481 68.7407C65.7672 68.56 65.3902 68.6073 65.1711 68.86C64.9525 69.1127 64.9474 69.482 65.1668 69.7346C65.2848 69.8864 65.3531 70.1406 65.0079 70.4861C64.2344 71.2085 56.4323 73.4016 43.4419 74.0604C41.6624 74.1528 39.7959 74.1999 37.8947 74.2003C26.2636 74.2003 17.7514 72.607 16.634 71.6787C17.0647 71.0599 20.0756 70.0712 23.2776 69.512C23.6385 69.449 23.8822 69.109 23.8263 68.7471C23.7704 68.3853 23.4368 68.1362 23.0722 68.1835C22.9818 68.1958 22.6753 68.2141 22.3204 68.2359C17.0371 68.5584 10.9318 69.2774 10.6132 71.9995C10.5165 72.829 10.763 73.582 11.3461 74.2374C12.773 75.8406 16.8741 77.9721 35.9395 77.9721C35.9398 77.9724 35.9398 77.9724 35.9401 77.9724Z" fill="#73A1FB"/>
<path d="M70.3106 73.1247C70.046 73.0024 69.7334 73.0642 69.536 73.2772C69.5087 73.3068 66.6949 76.2491 58.2347 77.9768C54.9959 78.6258 48.9163 78.9549 40.1649 78.9549C31.3971 78.9549 23.054 78.6099 22.9709 78.6064C22.6224 78.5894 22.3243 78.8428 22.2769 79.1859C22.2294 79.5286 22.4504 79.8518 22.7869 79.9319C22.8737 79.9524 31.6171 82.0008 43.5719 82.0008C49.3057 82.0008 54.8852 81.5352 60.1558 80.6162C69.9832 78.8934 70.6712 74.0205 70.6957 73.8139C70.73 73.5251 70.5747 73.2471 70.3106 73.1247Z" fill="#73A1FB"/>
</g>
<defs>
<clipPath id="clip0_1214_1053">
<rect width="82" height="82" fill="white"/>
</clipPath>
</defs>
</svg>
