<svg width="74" height="74" viewBox="0 0 74 74" fill="none" xmlns="http://www.w3.org/2000/svg">
<g clip-path="url(#clip0_1188_16984)">
<path d="M72.9816 22.1545L38.1496 0.33029C37.4467 -0.110097 36.5533 -0.110097 35.8504 0.33029L1.01837 22.1545C0.38532 22.5504 0 23.2449 0 23.9922C0 24.7396 0.38532 25.4341 1.01837 25.8299L35.8504 47.5096C36.2019 47.7298 36.602 47.8399 37 47.8399C37.398 47.8399 37.7981 47.7298 38.1496 47.5096L72.9816 25.8299C73.6147 25.4341 74 24.7396 74 23.9922C74 23.2449 73.6147 22.5504 72.9816 22.1545Z" fill="white"/>
<path d="M72.9816 48.1703L69.6061 46.0605L38.1496 65.6305C37.7981 65.8506 37.398 65.9608 37 65.9608C36.602 65.9608 36.2019 65.8506 35.8504 65.6305L4.39389 46.0605L1.01837 48.1703C0.38532 48.5661 0 49.2606 0 50.008C0 50.7554 0.38532 51.4498 1.01837 51.8457L35.8504 73.6699C36.2019 73.8901 36.602 74.0002 37 74.0002C37.398 74.0002 37.7981 73.8901 38.1496 73.6699L72.9816 51.8457C73.6147 51.4498 74 50.7554 74 50.008C74 49.2606 73.6147 48.5661 72.9816 48.1703Z" fill="white"/>
<path d="M72.9816 35.1625L69.6061 33.0527L38.1496 52.6227C37.7981 52.8428 37.398 52.953 37 52.953C36.602 52.953 36.2019 52.8428 35.8504 52.6227L4.39389 33.0527L1.01837 35.1625C0.38532 35.5583 0 36.2528 0 37.0002C0 37.7475 0.38532 38.442 1.01837 38.8379L35.8504 60.5176C36.2019 60.7377 36.602 60.8478 37 60.8478C37.398 60.8478 37.7981 60.7377 38.1496 60.5176L72.9816 38.8379C73.6147 38.442 74 37.7475 74 37.0002C74 36.2528 73.6147 35.5583 72.9816 35.1625Z" fill="white"/>
</g>
<defs>
<clipPath id="clip0_1188_16984">
<rect width="74" height="74" fill="white"/>
</clipPath>
</defs>
</svg>
