<svg width="25" height="25" viewBox="0 0 25 25" fill="none" xmlns="http://www.w3.org/2000/svg">
<path d="M5.62238 25H0.581361V8.79284H5.62238V25ZM3.07477 6.62466C1.50284 6.62466 0.201929 5.26954 0.201929 3.6434C0.201929 2.07147 1.50284 0.770563 3.07477 0.770563C4.70091 0.770563 6.00182 2.07147 6.00182 3.6434C6.00182 5.26954 4.70091 6.62466 3.07477 6.62466ZM24.4314 25H19.4445V17.1403C19.4445 15.2432 19.3903 12.8582 16.7885 12.8582C14.1867 12.8582 13.8073 14.8637 13.8073 16.9777V25H8.76625V8.79284H13.5905V11.0152H13.6447C14.3493 9.76852 15.9755 8.41341 18.4147 8.41341C23.5099 8.41341 24.4856 11.7741 24.4856 16.1105V25H24.4314Z" fill="#FEFEFE"/>
</svg>
