<svg width="203" height="67" viewBox="0 0 203 67" fill="none" xmlns="http://www.w3.org/2000/svg">
<path d="M0 6.53906H39.1198V0.195312L59.2083 15.526L39.1198 30.3281V24.513H0V6.53906Z" fill="#87CB28"/>
<path d="M0 26.6274H33.8333V44.6014H0V26.6274Z" fill="#87CB28"/>
<path d="M0 46.7163H16.9167V64.6903H0V46.7163Z" fill="#87CB28"/>
<path d="M81.606 10.8838V15.4007H72.1765V20.2803H79.2321V24.6653H72.1765V34.0289H66.5386V10.8838H81.606Z" fill="white"/>
<path d="M88.0707 34.2319C86.6836 34.2319 85.4317 33.9359 84.3152 33.3438C83.2157 32.7517 82.3445 31.9059 81.7016 30.8063C81.0757 29.7067 80.7627 28.421 80.7627 26.9493C80.7627 25.4944 81.0842 24.2172 81.727 23.1176C82.3698 22.0011 83.2495 21.1469 84.366 20.5548C85.4825 19.9627 86.7343 19.6666 88.1215 19.6666C89.5087 19.6666 90.7605 19.9627 91.877 20.5548C92.9935 21.1469 93.8732 22.0011 94.516 23.1176C95.1588 24.2172 95.4802 25.4944 95.4802 26.9493C95.4802 28.4041 95.1504 29.6898 94.4906 30.8063C93.8478 31.9059 92.9597 32.7517 91.8262 33.3438C90.7097 33.9359 89.4579 34.2319 88.0707 34.2319ZM88.0707 30.4764C88.8997 30.4764 89.6017 30.1719 90.1769 29.5629C90.769 28.9539 91.065 28.0827 91.065 26.9493C91.065 25.8159 90.7774 24.9446 90.2022 24.3356C89.644 23.7266 88.9504 23.4221 88.1215 23.4221C87.2757 23.4221 86.5736 23.7266 86.0154 24.3356C85.4571 24.9277 85.178 25.7989 85.178 26.9493C85.178 28.0827 85.4487 28.9539 85.99 29.5629C86.5482 30.1719 87.2418 30.4764 88.0707 30.4764Z" fill="white"/>
<path d="M100.218 22.2295C100.726 21.4514 101.36 20.8424 102.121 20.4025C102.883 19.9458 103.728 19.7174 104.659 19.7174V24.3103H103.466C102.384 24.3103 101.572 24.5471 101.03 25.0208C100.489 25.4775 100.218 26.2895 100.218 27.4568V34.0289H95.8791V19.8696H100.218V22.2295Z" fill="white"/>
<path d="M122.897 19.7174C124.656 19.7174 126.052 20.2503 127.084 21.316C128.132 22.3818 128.657 23.862 128.657 25.7566V34.0289H124.343V26.3403C124.343 25.4268 124.098 24.7247 123.607 24.2341C123.134 23.7266 122.474 23.4729 121.628 23.4729C120.782 23.4729 120.114 23.7266 119.623 24.2341C119.15 24.7247 118.913 25.4268 118.913 26.3403V34.0289H114.599V26.3403C114.599 25.4268 114.354 24.7247 113.863 24.2341C113.39 23.7266 112.73 23.4729 111.884 23.4729C111.038 23.4729 110.37 23.7266 109.879 24.2341C109.406 24.7247 109.169 25.4268 109.169 26.3403V34.0289H104.83V19.8696H109.169V21.6459C109.609 21.0538 110.184 20.5886 110.894 20.2503C111.605 19.895 112.408 19.7174 113.305 19.7174C114.371 19.7174 115.318 19.9458 116.147 20.4025C116.993 20.8593 117.653 21.5106 118.126 22.3564C118.617 21.5782 119.285 20.9439 120.131 20.4533C120.977 19.9627 121.899 19.7174 122.897 19.7174Z" fill="white"/>
<path d="M128.926 26.9239C128.926 25.4691 129.196 24.1919 129.738 23.0923C130.296 21.9927 131.049 21.1469 131.996 20.5548C132.943 19.9627 134.001 19.6666 135.168 19.6666C136.166 19.6666 137.037 19.8696 137.782 20.2756C138.543 20.6816 139.126 21.2145 139.532 21.8743V19.8696H143.872V34.0289H139.532V32.0243C139.11 32.684 138.517 33.2169 137.756 33.6229C137.012 34.0289 136.141 34.2319 135.143 34.2319C133.992 34.2319 132.943 33.9359 131.996 33.3438C131.049 32.7348 130.296 31.8805 129.738 30.7809C129.196 29.6644 128.926 28.3787 128.926 26.9239ZM139.532 26.9493C139.532 25.8666 139.228 25.0123 138.619 24.3864C138.027 23.7605 137.299 23.4475 136.437 23.4475C135.574 23.4475 134.838 23.7605 134.229 24.3864C133.637 24.9954 133.341 25.8412 133.341 26.9239C133.341 28.0066 133.637 28.8693 134.229 29.5121C134.838 30.1381 135.574 30.451 136.437 30.451C137.299 30.451 138.027 30.1381 138.619 29.5121C139.228 28.8862 139.532 28.0319 139.532 26.9493Z" fill="white"/>
<path d="M152.999 30.3495V34.0289H150.792C149.218 34.0289 147.992 33.6483 147.112 32.887C146.233 32.1089 145.793 30.8486 145.793 29.1061V23.4729H144.067V19.8696H145.793V16.4186H150.132V19.8696H152.974V23.4729H150.132V29.1569C150.132 29.5798 150.233 29.8843 150.436 30.0704C150.639 30.2565 150.978 30.3495 151.451 30.3495H152.999Z" fill="white"/>
<path d="M155.695 18.3979C154.934 18.3979 154.308 18.178 153.818 17.7381C153.344 17.2814 153.107 16.7231 153.107 16.0634C153.107 15.3867 153.344 14.8285 153.818 14.3886C154.308 13.9319 154.934 13.7035 155.695 13.7035C156.44 13.7035 157.049 13.9319 157.522 14.3886C158.013 14.8285 158.258 15.3867 158.258 16.0634C158.258 16.7231 158.013 17.2814 157.522 17.7381C157.049 18.178 156.44 18.3979 155.695 18.3979ZM157.852 19.8696V34.0289H153.513V19.8696H157.852Z" fill="white"/>
<path d="M165.539 34.2319C164.152 34.2319 162.9 33.9359 161.783 33.3438C160.684 32.7517 159.813 31.9059 159.17 30.8063C158.544 29.7067 158.231 28.421 158.231 26.9493C158.231 25.4944 158.552 24.2172 159.195 23.1176C159.838 22.0011 160.718 21.1469 161.834 20.5548C162.951 19.9627 164.202 19.6666 165.59 19.6666C166.977 19.6666 168.229 19.9627 169.345 20.5548C170.462 21.1469 171.341 22.0011 171.984 23.1176C172.627 24.2172 172.948 25.4944 172.948 26.9493C172.948 28.4041 172.618 29.6898 171.959 30.8063C171.316 31.9059 170.428 32.7517 169.294 33.3438C168.178 33.9359 166.926 34.2319 165.539 34.2319ZM165.539 30.4764C166.368 30.4764 167.07 30.1719 167.645 29.5629C168.237 28.9539 168.533 28.0827 168.533 26.9493C168.533 25.8159 168.245 24.9446 167.67 24.3356C167.112 23.7266 166.418 23.4221 165.59 23.4221C164.744 23.4221 164.042 23.7266 163.483 24.3356C162.925 24.9277 162.646 25.7989 162.646 26.9493C162.646 28.0827 162.917 28.9539 163.458 29.5629C164.016 30.1719 164.71 30.4764 165.539 30.4764Z" fill="white"/>
<path d="M181.975 19.7174C183.633 19.7174 184.952 20.2587 185.933 21.3414C186.931 22.4071 187.43 23.8789 187.43 25.7566V34.0289H183.117V26.3403C183.117 25.3929 182.871 24.6571 182.381 24.1326C181.89 23.6082 181.23 23.346 180.401 23.346C179.573 23.346 178.913 23.6082 178.422 24.1326C177.932 24.6571 177.686 25.3929 177.686 26.3403V34.0289H173.347V19.8696H177.686V21.7474C178.126 21.1215 178.718 20.6309 179.463 20.2756C180.207 19.9035 181.044 19.7174 181.975 19.7174Z" fill="white"/>
<path d="M194.303 34.2319C193.068 34.2319 191.968 34.0204 191.004 33.5975C190.04 33.1746 189.278 32.5994 188.72 31.872C188.162 31.1277 187.849 30.2988 187.781 29.3853H192.07C192.12 29.8759 192.349 30.2734 192.755 30.5779C193.161 30.8824 193.66 31.0346 194.252 31.0346C194.793 31.0346 195.208 30.9331 195.495 30.7301C195.8 30.5102 195.952 30.2311 195.952 29.8928C195.952 29.4868 195.74 29.1907 195.318 29.0046C194.895 28.8016 194.21 28.5817 193.262 28.3449C192.247 28.1081 191.401 27.8628 190.725 27.609C190.048 27.3384 189.464 26.9239 188.974 26.3656C188.483 25.7905 188.238 25.0208 188.238 24.0565C188.238 23.2445 188.458 22.5086 188.898 21.8489C189.354 21.1722 190.014 20.6394 190.877 20.2503C191.757 19.8612 192.797 19.6666 193.998 19.6666C195.774 19.6666 197.17 20.1065 198.185 20.9861C199.217 21.8658 199.809 23.0331 199.961 24.4879H195.952C195.884 23.9973 195.664 23.6082 195.292 23.3206C194.937 23.0331 194.463 22.8893 193.871 22.8893C193.364 22.8893 192.975 22.9908 192.704 23.1938C192.433 23.3799 192.298 23.6421 192.298 23.9804C192.298 24.3864 192.509 24.6909 192.932 24.8939C193.372 25.0969 194.049 25.2999 194.962 25.5029C196.011 25.7736 196.865 26.0442 197.525 26.3149C198.185 26.5686 198.76 26.9916 199.251 27.5836C199.758 28.1588 200.02 28.937 200.037 29.9181C200.037 30.7471 199.8 31.4914 199.327 32.1511C198.87 32.794 198.202 33.3015 197.322 33.6736C196.459 34.0458 195.453 34.2319 194.303 34.2319Z" fill="white"/>
<path d="M86.5816 41.5479V64.6902H80.9444V55.163H72.1753V64.6902H66.5381V41.5479H72.1753V50.6136H80.9444V41.5479H86.5816Z" fill="white"/>
<path d="M101.36 50.531V64.6902H97.0209V62.7617C96.581 63.3876 95.9805 63.8951 95.2192 64.2842C94.4749 64.6564 93.646 64.8425 92.7325 64.8425C91.6498 64.8425 90.694 64.6056 89.8651 64.132C89.0362 63.6414 88.3934 62.9394 87.9366 62.0259C87.4799 61.1124 87.2515 60.0381 87.2515 58.8032V50.531H91.5652V58.2196C91.5652 59.1669 91.8105 59.9028 92.3011 60.4272C92.7917 60.9516 93.4515 61.2139 94.2804 61.2139C95.1262 61.2139 95.7944 60.9516 96.285 60.4272C96.7756 59.9028 97.0209 59.1669 97.0209 58.2196V50.531H101.36Z" fill="white"/>
<path d="M110.947 50.3787C112.605 50.3787 113.925 50.9201 114.906 52.0027C115.904 53.0685 116.403 54.5402 116.403 56.418V64.6902H112.089V57.0016C112.089 56.0543 111.844 55.3184 111.353 54.794C110.863 54.2696 110.203 54.0074 109.374 54.0074C108.545 54.0074 107.885 54.2696 107.395 54.794C106.904 55.3184 106.659 56.0543 106.659 57.0016V64.6902H102.32V50.531H106.659V52.4087C107.099 51.7828 107.691 51.2922 108.435 50.937C109.18 50.5648 110.017 50.3787 110.947 50.3787Z" fill="white"/>
<path d="M126.73 60.3976V64.6902H124.155C122.319 64.6902 120.889 64.2462 119.862 63.358C118.836 62.4502 118.323 60.9798 118.323 58.947V52.3749H116.31V48.1711H118.323V44.1449H123.385V48.1711H126.701V52.3749H123.385V59.0062C123.385 59.4996 123.504 59.8549 123.74 60.072C123.977 60.2891 124.372 60.3976 124.925 60.3976H126.73Z" fill="white"/>
<path fill-rule="evenodd" clip-rule="evenodd" d="M61.3229 66.8049V8.65381H63.4375L63.4375 66.8049H61.3229Z" fill="#87CB28"/>
<path fill-rule="evenodd" clip-rule="evenodd" d="M203 39.3153H62.3804V37.2007H203V39.3153Z" fill="#87CB28"/>
</svg>
