<svg width="16" height="16" viewBox="0 0 16 16" fill="none" xmlns="http://www.w3.org/2000/svg">
<g clip-path="url(#clip0_437_400)">
<path d="M14.6667 3.33328H11.3333V2.6666C11.3333 1.93125 10.7354 1.33325 10 1.33325H6C5.26466 1.33325 4.66666 1.93122 4.66666 2.6666V3.33325H1.33334C0.597969 3.33328 0 3.93125 0 4.6666V6.66659C0 7.40197 0.597969 7.99994 1.33334 7.99994H6.66669V7.66659C6.66669 7.48235 6.81578 7.33325 7.00003 7.33325H9.00003C9.18428 7.33325 9.33337 7.48235 9.33337 7.66659V7.99994H14.6667C15.402 7.99994 16 7.40197 16 6.66659V4.6666C16 3.93125 15.402 3.33328 14.6667 3.33328ZM10 3.33328H6V2.6666H10V3.33328Z" fill="black"/>
<path d="M15.8151 8.35967C15.7015 8.30335 15.5657 8.31639 15.4655 8.39254C15.2285 8.57192 14.9524 8.66663 14.6666 8.66663H9.33334V9.66663C9.33334 9.85088 9.18424 9.99998 8.99999 9.99998H7C6.81575 9.99998 6.66665 9.85088 6.66665 9.66663V8.66663H1.33334C1.04753 8.66663 0.7715 8.57192 0.5345 8.39254C0.433906 8.31573 0.2985 8.3027 0.184875 8.35967C0.0716249 8.41601 0 8.53154 0 8.6582V13.3333C0 14.0687 0.597968 14.6667 1.33334 14.6667H14.6667C15.402 14.6667 16 14.0687 16 13.3333V8.6582C16 8.53154 15.9284 8.41601 15.8151 8.35967Z" fill="black"/>
</g>
<defs>
<clipPath id="clip0_437_400">
<rect width="16" height="16" fill="white"/>
</clipPath>
</defs>
</svg>
