<svg width="17" height="15" viewBox="0 0 17 15" fill="none" xmlns="http://www.w3.org/2000/svg">
<path d="M2.83203 3.95841C2.83203 2.00241 4.41769 0.416748 6.3737 0.416748C8.32969 0.416748 9.91536 2.00241 9.91536 3.95841C9.91536 5.91442 8.32969 7.50008 6.3737 7.50008C4.41769 7.50008 2.83203 5.91442 2.83203 3.95841Z" fill="white"/>
<path d="M14.1667 6.0835V3.9585H12.75V6.0835H10.625V7.50016H12.75V9.62516H14.1667V7.50016H16.2917V6.0835H14.1667Z" fill="white"/>
<path d="M4.2487 8.91675C3.30939 8.91675 2.40855 9.2899 1.74436 9.9541C1.08017 10.6182 0.707031 11.5191 0.707031 12.4584V14.5834H12.0404V12.4584C12.0404 11.5191 11.6672 10.6182 11.003 9.9541C10.3389 9.2899 9.43802 8.91675 8.4987 8.91675H4.2487Z" fill="white"/>
</svg>
