<svg width="72" height="72" viewBox="0 0 72 72" fill="none" xmlns="http://www.w3.org/2000/svg">
<path d="M35.5763 0.000588541C32.6398 0.0142292 29.8356 0.264682 27.3682 0.701323C20.0994 1.98551 18.7796 4.67328 18.7796 9.63017V16.1767H35.9566V18.3588H18.7796H12.3333C7.34122 18.3588 2.96989 21.3593 1.60274 27.0674C0.0256285 33.6101 -0.0442621 37.693 1.60274 44.5247C2.82378 49.6099 5.73964 53.2332 10.7317 53.2332H16.6375V45.3854C16.6375 39.7158 21.5429 34.7149 27.3682 34.7149H44.5251C49.301 34.7149 53.1135 30.7826 53.1135 25.9863V9.63017C53.1135 4.9752 49.1864 1.47828 44.5251 0.701323C41.5744 0.21012 38.5127 -0.0130521 35.5763 0.000588541ZM26.2871 5.26587C28.0613 5.26587 29.5102 6.7385 29.5102 8.54904C29.5102 10.3533 28.0613 11.8122 26.2871 11.8122C24.5065 11.8122 23.0639 10.3533 23.0639 8.54904C23.0639 6.73836 24.5065 5.26587 26.2871 5.26587Z" fill="url(#paint0_linear_1214_1013)"/>
<path d="M55.2553 18.3597V25.9872C55.2553 31.9007 50.2417 36.8779 44.5248 36.8779H27.3678C22.6683 36.8779 18.7793 40.9 18.7793 45.6065V61.9625C18.7793 66.6175 22.8272 69.3556 27.3678 70.6911C32.8051 72.2899 38.0192 72.5789 44.5248 70.6911C48.8491 69.4392 53.1132 66.9194 53.1132 61.9625V55.416H35.9562V53.2338H53.1132H61.7017C66.6937 53.2338 68.5541 49.7518 70.2902 44.5253C72.0836 39.1447 72.0072 33.9704 70.2902 27.068C69.0565 22.0983 66.7002 18.3594 61.7017 18.3594H55.2553V18.3597ZM45.6059 59.7805C47.3865 59.7805 48.829 61.2395 48.829 63.0437C48.829 64.8544 47.3865 66.327 45.6059 66.327C43.8316 66.327 42.3828 64.8544 42.3828 63.0437C42.3826 61.2395 43.8315 59.7805 45.6059 59.7805Z" fill="url(#paint1_linear_1214_1013)"/>
<defs>
<linearGradient id="paint0_linear_1214_1013" x1="-1.28993" y1="2.04758" x2="38.3272" y2="35.8327" gradientUnits="userSpaceOnUse">
<stop stop-color="#5A9FD4"/>
<stop offset="1" stop-color="#306998"/>
</linearGradient>
<linearGradient id="paint1_linear_1214_1013" x1="53.2328" y1="56.8347" x2="39.0257" y2="36.9112" gradientUnits="userSpaceOnUse">
<stop stop-color="#FFD43B"/>
<stop offset="1" stop-color="#FFE873"/>
</linearGradient>
</defs>
</svg>
