<svg width="60" height="45" viewBox="0 0 60 45" fill="none" xmlns="http://www.w3.org/2000/svg">
<mask id="mask0_23_22" style="mask-type:alpha" maskUnits="userSpaceOnUse" x="0" y="0" width="60" height="45">
<path d="M0 0H60V45H0V0Z" fill="#D9D9D9"/>
</mask>
<g mask="url(#mask0_23_22)">
<path d="M26.44 3.51999C26.9067 4.91999 27.14 6.08666 27.14 7.02C27.14 7.86 27 8.98 26.72 10.38C20.4667 10.38 17.34 13.6 17.34 20.04C17.34 22.3733 18.5533 23.68 20.98 23.96C24.5267 24.24 26.3 26.5267 26.3 30.82C26.3 34.0867 25.5067 36.6067 23.92 38.38C22.4267 40.06 19.6733 40.9 15.66 40.9C10.1533 40.9 7.4 37.1667 7.4 29.7C7.4 22.2333 8.89333 16.0267 11.88 11.08C14.8667 6.04 19.72 3.51999 26.44 3.51999ZM51.78 3.51999C52.2467 4.91999 52.48 6.08666 52.48 7.02C52.48 7.86 52.34 8.98 52.06 10.38C45.8067 10.38 42.68 13.6 42.68 20.04C42.68 22.3733 43.8933 23.68 46.32 23.96C49.8667 24.24 51.64 26.5267 51.64 30.82C51.64 34.0867 50.8467 36.6067 49.26 38.38C47.7667 40.06 45.0133 40.9 41 40.9C35.4933 40.9 32.74 37.1667 32.74 29.7C32.74 22.2333 34.2333 16.0267 37.22 11.08C40.2067 6.04 45.06 3.51999 51.78 3.51999Z" fill="black" fill-opacity="0.2"/>
</g>
</svg>
