<svg width="64" height="64" viewBox="0 0 64 64" fill="none" xmlns="http://www.w3.org/2000/svg">
<g clip-path="url(#clip0_1217_1108)">
<path d="M58.3252 14.6104C55.9657 10.9152 50.892 9.38011 44.0557 10.2612C43.8142 10.2895 43.5583 10.3322 43.3167 10.3605C43.2174 10.1335 43.118 9.90586 43.0042 9.67879C40.0624 3.43926 36.0402 0 31.6627 0C27.2852 0 23.2491 3.43926 20.3211 9.67879C20.2218 9.90586 20.1079 10.1335 20.0086 10.3605C19.7526 10.3183 19.5111 10.2895 19.2696 10.2612C12.4194 9.36568 7.35962 10.9152 5.00015 14.6104C2.64125 18.3055 3.36574 23.5497 7.03262 29.3767C7.51618 30.1445 8.04192 30.9117 8.61041 31.6651C8.04192 32.4323 7.51618 33.1857 7.03262 33.953C3.36574 39.78 2.64125 45.0385 5.00015 48.7199C6.91882 51.7328 10.6429 53.3105 15.6594 53.3105C16.8619 53.3039 18.0627 53.2234 19.2552 53.0685C19.4967 53.0402 19.7526 52.9974 19.9941 52.9691C20.0941 53.1967 20.1934 53.4238 20.3073 53.6514C23.2491 59.8904 27.2713 63.3302 31.6482 63.3302C36.0257 63.3302 40.0624 59.8904 42.9898 53.6514C43.0891 53.4238 43.2029 53.1967 43.3023 52.9691C43.5583 53.0119 43.7997 53.0402 44.0418 53.0685C45.2332 53.23 46.4346 53.3105 47.6371 53.3105C52.6541 53.3105 56.3776 51.7328 58.2963 48.7199C60.6558 45.0247 59.9307 39.78 56.2644 33.953C55.7808 33.1857 55.2551 32.4185 54.6866 31.6651C55.2551 30.8973 55.7808 30.1445 56.2644 29.3767C59.9735 23.5358 60.6985 18.2911 58.3252 14.6104ZM22.8938 10.8868C25.2954 5.77041 28.4932 2.84246 31.6627 2.84246C34.8321 2.84246 38.0299 5.77041 40.4315 10.8868C40.4332 10.8974 40.4382 10.9074 40.446 10.9152C37.427 11.6413 34.4824 12.6451 31.6482 13.9136C28.8174 12.639 25.8717 11.6347 22.851 10.9152C22.8793 10.9152 22.8793 10.9007 22.8938 10.8868ZM44.4682 31.6651C44.4687 33.9391 44.3455 36.2119 44.0984 38.4726C42.3269 39.9021 40.4765 41.2306 38.5556 42.452C36.3388 43.8755 34.0316 45.1529 31.6482 46.2755C29.2699 45.144 26.9626 43.8671 24.7414 42.452C22.8227 41.2273 20.9723 39.8988 19.1986 38.4726C18.7056 33.9474 18.7056 29.3823 19.1986 24.8571C23.0292 21.7787 27.208 19.16 31.6482 17.0548C34.0271 18.1856 36.3338 19.4625 38.5556 20.8776C40.4743 22.1023 42.3247 23.4309 44.0984 24.8571C44.3455 27.1183 44.4687 29.3906 44.4682 31.6651ZM47.1824 27.5291C48.5742 28.8254 49.8844 30.2067 51.1052 31.6651C49.8844 33.123 48.5742 34.5042 47.1824 35.8005C47.2679 34.4365 47.3106 33.058 47.3106 31.6651C47.3106 30.2722 47.2679 28.8937 47.1824 27.5291ZM43.5155 42.5092C43.0669 44.9697 42.4157 47.3891 41.5685 49.743C39.3612 49.2445 37.1949 48.5794 35.088 47.7533C36.7647 46.8723 38.4418 45.9057 40.1045 44.8542C41.2704 44.1009 42.4074 43.3192 43.5155 42.5092ZM28.2373 47.7533C26.1343 48.59 23.9669 49.2556 21.7568 49.743C20.9096 47.3891 20.2584 44.9697 19.8098 42.5092C20.9041 43.3192 22.041 44.1009 23.2208 44.8398C24.8835 45.9057 26.5607 46.8723 28.2373 47.7533ZM16.1429 35.8005C14.7511 34.5042 13.4415 33.123 12.2201 31.6651C13.4415 30.2067 14.7511 28.8254 16.1429 27.5291C16.0574 28.8937 16.0147 30.2722 16.0147 31.6651C16.0147 33.058 16.0574 34.4365 16.1429 35.8005ZM19.8098 20.821C20.2584 18.36 20.9096 15.9405 21.7568 13.5872C23.9641 14.0852 26.131 14.7503 28.2373 15.5769C26.5607 16.4579 24.8835 17.4245 23.2208 18.476C22.0549 19.2293 20.9179 20.011 19.8098 20.821ZM40.0907 18.476C38.4418 17.4245 36.7647 16.4435 35.0736 15.5769C37.1766 14.7403 39.344 14.0746 41.5546 13.5872C42.4013 15.9405 43.0525 18.36 43.5016 20.821C42.4074 20.011 41.2704 19.2293 40.0907 18.476ZM9.43484 27.8561C6.42139 23.0805 5.68246 18.803 7.38793 16.131C8.75254 13.9991 11.7088 12.8477 15.7021 12.8477C16.7714 12.8521 17.8395 12.9238 18.8999 13.0609H18.9282C17.7785 16.4041 16.9785 19.8572 16.541 23.3648C14.3509 25.1918 12.3117 27.1932 10.4436 29.3484C10.0883 28.8654 9.7474 28.368 9.43484 27.8561ZM18.886 50.2549C17.8256 50.3926 16.7575 50.4636 15.6883 50.4681C11.6944 50.4681 8.7381 49.3311 7.37405 47.1848C5.66858 44.5128 6.40751 40.2352 9.4204 35.4597C9.73296 34.9622 10.0744 34.4504 10.4297 33.953C12.2973 36.1087 14.3364 38.1095 16.5266 39.9366C16.9646 43.4447 17.7646 46.8978 18.9143 50.2405C18.9143 50.2549 18.8999 50.2549 18.886 50.2549ZM40.4315 52.4434C38.0299 57.5598 34.8321 60.4878 31.6627 60.4878C28.4932 60.4878 25.2954 57.5598 22.8938 52.4434C22.8921 52.4328 22.8871 52.4228 22.8793 52.4151C25.8983 51.6889 28.843 50.6852 31.6771 49.416C34.5079 50.6913 37.4536 51.6956 40.4743 52.4151C40.446 52.4151 40.446 52.4289 40.4315 52.4434ZM53.8905 35.4741C56.9039 40.2491 57.6429 44.5272 55.9374 47.1993C54.2319 49.8707 50.0393 50.9938 44.4393 50.2549H44.411C45.5607 46.9117 46.3613 43.4585 46.7988 39.951C48.9889 38.1239 51.028 36.1225 52.8956 33.9674C53.237 34.4648 53.5779 34.9622 53.8905 35.4741ZM46.7843 23.3792C46.3469 19.8711 45.5469 16.418 44.3971 13.0753H44.4254C50.0248 12.3503 54.2175 13.4589 55.923 16.131C57.6284 18.803 56.8895 23.0805 53.8766 27.8561C53.564 28.3535 53.2226 28.8654 52.8673 29.3628C51.008 27.2038 48.9734 25.2024 46.7843 23.3792Z" fill="url(#paint0_linear_1217_1108)"/>
<path d="M31.6615 26.0371C28.5531 26.0371 26.0332 28.557 26.0332 31.6654C26.0332 34.7738 28.5531 37.2931 31.6615 37.2931C34.7699 37.2931 37.2898 34.7738 37.2898 31.6654C37.2876 28.5576 34.7688 26.0393 31.6615 26.0371ZM31.6615 34.4507C30.1231 34.4507 28.8757 33.2038 28.8757 31.6654C28.8757 30.127 30.1231 28.8796 31.6615 28.8796C33.1999 28.8796 34.4473 30.127 34.4473 31.6654C34.4446 33.2027 33.1988 34.4485 31.6615 34.4507Z" fill="url(#paint1_linear_1217_1108)"/>
</g>
<defs>
<linearGradient id="paint0_linear_1217_1108" x1="31.667" y1="-2.44451" x2="31.667" y2="66.458" gradientUnits="userSpaceOnUse">
<stop stop-color="#00EFD1"/>
<stop offset="1" stop-color="#00ACEA"/>
</linearGradient>
<linearGradient id="paint1_linear_1217_1108" x1="31.6615" y1="-2.44424" x2="31.6615" y2="66.4583" gradientUnits="userSpaceOnUse">
<stop stop-color="#00EFD1"/>
<stop offset="1" stop-color="#00ACEA"/>
</linearGradient>
<clipPath id="clip0_1217_1108">
<rect width="63.33" height="63.33" fill="white"/>
</clipPath>
</defs>
</svg>
