<svg width="17" height="14" viewBox="0 0 17 14" fill="none" xmlns="http://www.w3.org/2000/svg">
<path d="M15.1635 3.36059C15.1635 3.52096 15.1635 3.64926 15.1635 3.80963C15.1635 8.26791 11.7957 13.3677 5.60542 13.3677C3.68098 13.3677 1.91691 12.8224 0.441508 11.8602C0.6981 11.8923 0.954692 11.9243 1.24336 11.9243C2.81498 11.9243 4.25831 11.3791 5.41298 10.481C3.93757 10.4489 2.68669 9.48672 2.26973 8.13962C2.49424 8.17169 2.68669 8.20376 2.9112 8.20376C3.19987 8.20376 3.52061 8.13962 3.7772 8.07547C2.23765 7.75473 1.08299 6.40762 1.08299 4.77185V4.73977C1.53202 4.99637 2.07728 5.12466 2.62254 5.15674C1.69239 4.54733 1.11506 3.52096 1.11506 2.3663C1.11506 1.72482 1.27543 1.14749 1.5641 0.666379C3.23194 2.68704 5.73372 4.03415 8.52415 4.19452C8.46 3.93793 8.42793 3.68133 8.42793 3.42474C8.42793 1.56445 9.93541 0.0569733 11.7957 0.0569733C12.7579 0.0569733 13.6239 0.441861 14.2654 1.11541C15.0031 0.955045 15.7408 0.666379 16.3823 0.281491C16.1257 1.08334 15.6125 1.72482 14.9069 2.14178C15.5804 2.07763 16.254 1.88519 16.8313 1.6286C16.3823 2.30215 15.8049 2.87948 15.1635 3.36059Z" fill="#FEFEFE"/>
</svg>
