<svg width="15" height="15" viewBox="0 0 15 15" fill="none" xmlns="http://www.w3.org/2000/svg">
<path d="M3.71317 14.8545H0.730287V5.26437H3.71317V14.8545ZM2.20569 3.98141C1.27554 3.98141 0.505769 3.17956 0.505769 2.21734C0.505769 1.2872 1.27554 0.517422 2.20569 0.517422C3.16791 0.517422 3.93769 1.2872 3.93769 2.21734C3.93769 3.17956 3.16791 3.98141 2.20569 3.98141ZM14.8428 14.8545H11.892V10.2038C11.892 9.08118 11.86 7.66992 10.3204 7.66992C8.78086 7.66992 8.55634 8.85666 8.55634 10.1075V14.8545H5.57346V5.26437H8.42804V6.5794H8.46012C8.87708 5.8417 9.8393 5.03985 11.2826 5.03985C14.2976 5.03985 14.8749 7.02844 14.8749 9.59436V14.8545H14.8428Z" fill="#FEFEFE"/>
</svg>
