<svg width="19" height="13" viewBox="0 0 19 13" fill="none" xmlns="http://www.w3.org/2000/svg">
<path d="M18.1007 2.49447C18.4856 3.84158 18.4856 6.72824 18.4856 6.72824C18.4856 6.72824 18.4856 9.58282 18.1007 10.962C17.9083 11.7318 17.2989 12.3091 16.5612 12.5016C15.182 12.8544 9.7294 12.8544 9.7294 12.8544C9.7294 12.8544 4.24475 12.8544 2.86557 12.5016C2.12787 12.3091 1.51847 11.7318 1.32602 10.962C0.941134 9.58282 0.941134 6.72824 0.941134 6.72824C0.941134 6.72824 0.941134 3.84158 1.32602 2.49447C1.51847 1.7247 2.12787 1.11529 2.86557 0.922849C4.24475 0.537961 9.7294 0.537961 9.7294 0.537961C9.7294 0.537961 15.182 0.537961 16.5612 0.922849C17.2989 1.11529 17.9083 1.7247 18.1007 2.49447ZM7.93326 9.32623L12.4878 6.72824L7.93326 4.13025V9.32623Z" fill="#FEFEFE"/>
</svg>
