<svg width="15" height="15" viewBox="0 0 15 15" fill="none" xmlns="http://www.w3.org/2000/svg">
<path d="M7.61417 4.00766C9.63483 4.00766 11.3027 5.6755 11.3027 7.69617C11.3027 9.7489 9.63483 11.3847 7.61417 11.3847C5.56143 11.3847 3.92566 9.7489 3.92566 7.69617C3.92566 5.6755 5.56143 4.00766 7.61417 4.00766ZM7.61417 10.1017C8.9292 10.1017 9.98764 9.04327 9.98764 7.69617C9.98764 6.38113 8.9292 5.32269 7.61417 5.32269C6.26706 5.32269 5.20862 6.38113 5.20862 7.69617C5.20862 9.04327 6.29914 10.1017 7.61417 10.1017ZM12.297 3.87936C12.297 4.36047 11.9121 4.74536 11.431 4.74536C10.9499 4.74536 10.565 4.36047 10.565 3.87936C10.565 3.39825 10.9499 3.01336 11.431 3.01336C11.9121 3.01336 12.297 3.39825 12.297 3.87936ZM14.7346 4.74536C14.7987 5.9321 14.7987 9.49231 14.7346 10.679C14.6704 11.8337 14.4139 12.828 13.5799 13.694C12.746 14.5279 11.7196 14.7845 10.565 14.8487C9.37824 14.9128 5.81803 14.9128 4.63129 14.8487C3.47663 14.7845 2.48233 14.5279 1.61633 13.694C0.782411 12.828 0.525819 11.8337 0.461671 10.679C0.397523 9.49231 0.397523 5.9321 0.461671 4.74536C0.525819 3.5907 0.782411 2.56433 1.61633 1.7304C2.48233 0.896481 3.47663 0.63989 4.63129 0.575742C5.81803 0.511594 9.37824 0.511594 10.565 0.575742C11.7196 0.63989 12.746 0.896481 13.5799 1.7304C14.4139 2.56433 14.6704 3.5907 14.7346 4.74536ZM13.195 11.9299C13.5799 10.9998 13.4837 8.75461 13.4837 7.69617C13.4837 6.6698 13.5799 4.42462 13.195 3.4624C12.9385 2.85299 12.4573 2.33981 11.8479 2.11529C10.8857 1.7304 8.64054 1.82663 7.61417 1.82663C6.55573 1.82663 4.31055 1.7304 3.3804 2.11529C2.73892 2.37188 2.25781 2.85299 2.00122 3.4624C1.61633 4.42462 1.71256 6.6698 1.71256 7.69617C1.71256 8.75461 1.61633 10.9998 2.00122 11.9299C2.25781 12.5714 2.73892 13.0525 3.3804 13.3091C4.31055 13.694 6.55573 13.5978 7.61417 13.5978C8.64054 13.5978 10.8857 13.694 11.8479 13.3091C12.4573 13.0525 12.9705 12.5714 13.195 11.9299Z" fill="#FEFEFE"/>
</svg>
