<svg width="11" height="15" viewBox="0 0 11 15" fill="none" xmlns="http://www.w3.org/2000/svg">
<path d="M10.2889 10.7753C10.4813 10.7753 10.6737 10.9677 10.6737 11.1602V14.4958C10.6737 14.7204 10.4813 14.8807 10.2889 14.8807H0.794955C0.570437 14.8807 0.410067 14.7204 0.410067 14.4958V13.2129C0.410067 13.0204 0.570437 12.828 0.794955 12.828H1.94962V8.72253H1.05155C0.827029 8.72253 0.666659 8.56216 0.666659 8.33765V7.05469C0.666659 6.86224 0.827029 6.6698 1.05155 6.6698H1.94962V4.55292C1.94962 2.21151 3.80991 0.511594 6.4079 0.511594C7.97953 0.511594 9.16626 1.2493 9.67945 1.63418C9.83982 1.79455 9.87189 2.01907 9.7436 2.21151L8.84552 3.3341C8.71723 3.49447 8.49271 3.52655 8.33234 3.43033C7.94745 3.17373 7.24183 2.82092 6.47205 2.82092C5.28531 2.82092 4.51554 3.62277 4.51554 4.64914V6.6698H7.20975C7.4022 6.6698 7.59464 6.86224 7.59464 7.05469V8.33765C7.59464 8.56216 7.4022 8.72253 7.20975 8.72253H4.51554V12.7959H8.42856V11.1602C8.42856 10.9677 8.58893 10.7753 8.81345 10.7753H10.2889Z" fill="#FEFEFE"/>
</svg>
