<svg width="62" height="62" viewBox="0 0 62 62" fill="none" xmlns="http://www.w3.org/2000/svg">
<path d="M0 46.6903C0 50.6776 1.00423 55.0742 4.03969 57.931C7.07309 60.9644 11.1034 61.9707 15.2805 61.9707H46.7195C52.3755 61.9707 57.5487 59.7652 60.3608 54.6525C61.6669 52.2776 62 49.3598 62 46.6903V15.3098C62 11.2746 61.0304 6.95841 57.9603 4.06899C54.9269 1.03559 50.8973 0.0292969 46.7195 0.0292969H15.2799C11.1742 0.0292969 7.01084 1.03922 4.03957 4.01038C0.975774 7.07429 0.173648 11.0831 0 15.2512L0 46.6903Z" fill="#FF5034"/>
<path d="M49.0604 38.3177C49.119 38.0835 49.1775 37.8493 49.236 37.6151C51.812 27.3696 45.5476 15.1921 34.8924 8.81055C39.576 15.1335 41.6252 22.8029 39.8102 29.4773C39.6346 30.0627 39.4589 30.6481 39.2247 31.2336C38.9905 31.058 38.6978 30.8823 38.2879 30.7067C38.2879 30.7067 27.6911 24.1496 16.2162 12.616C15.9235 12.3234 22.3635 21.8078 29.6232 29.4773C26.169 27.5452 16.6261 20.5783 10.5373 15.075C11.2983 16.3044 12.1765 17.5339 13.1133 18.6463C18.1482 25.0863 24.7638 32.9899 32.6676 39.0788C27.1058 42.4745 19.2606 42.7672 11.474 39.0788C9.54198 38.2006 7.72715 37.0882 6.0293 35.8588C9.30791 41.1279 14.4014 45.6945 20.6072 48.3876C27.984 51.5491 35.4192 51.3149 40.864 48.3876C41.0982 48.2705 41.3324 48.0949 41.5666 47.9778C44.2011 46.6313 49.3531 45.2847 52.1633 50.671C52.983 51.9003 54.4467 44.8748 49.0604 38.3177Z" fill="white"/>
</svg>
