<svg width="26" height="26" viewBox="0 0 26 26" fill="none" xmlns="http://www.w3.org/2000/svg">
<rect width="26" height="26" fill="white"/>
<g clip-path="url(#clip0_0_1)">
<rect width="1600" height="2973" transform="translate(-404 -1584)" fill="white"/>
<rect x="-304" y="-8" width="1401" height="46" fill="#F0F0F0"/>
<path d="M10.6182 19.5001C10.2932 19.5001 10.0766 19.3917 9.8599 19.1751L4.55156 13.5417C4.11823 13.1084 4.11823 12.4584 4.55156 12.0251C4.9849 11.5917 5.6349 11.5917 6.06823 12.0251L10.5099 16.7917L19.6099 6.82507C19.9349 6.39174 20.6932 6.2834 21.1266 6.6084C21.5599 6.9334 21.6682 7.69174 21.3432 8.12507L21.2349 8.2334L11.3766 19.0667C11.2682 19.3917 10.9432 19.5001 10.6182 19.5001Z" fill="#059C69"/>
</g>
<defs>
<clipPath id="clip0_0_1">
<rect width="1600" height="2973" fill="white" transform="translate(-404 -1584)"/>
</clipPath>
</defs>
</svg>
