<svg width="288" height="126" viewBox="0 0 288 126" fill="none" xmlns="http://www.w3.org/2000/svg">
<g filter="url(#filter0_d_0_539)">
<rect x="16" y="8" width="256" height="94" rx="18" fill="white"/>
<path d="M80.792 54.552C80.792 52.888 81.152 51.408 81.872 50.112C82.592 48.8 83.592 47.784 84.872 47.064C86.168 46.328 87.632 45.96 89.264 45.96C91.264 45.96 92.976 46.488 94.4 47.544C95.824 48.6 96.776 50.04 97.256 51.864H92.744C92.408 51.16 91.928 50.624 91.304 50.256C90.696 49.888 90 49.704 89.216 49.704C87.952 49.704 86.928 50.144 86.144 51.024C85.36 51.904 84.968 53.08 84.968 54.552C84.968 56.024 85.36 57.2 86.144 58.08C86.928 58.96 87.952 59.4 89.216 59.4C90 59.4 90.696 59.216 91.304 58.848C91.928 58.48 92.408 57.944 92.744 57.24H97.256C96.776 59.064 95.824 60.504 94.4 61.56C92.976 62.6 91.264 63.12 89.264 63.12C87.632 63.12 86.168 62.76 84.872 62.04C83.592 61.304 82.592 60.288 81.872 58.992C81.152 57.696 80.792 56.216 80.792 54.552ZM98.9533 56.28C98.9533 54.904 99.2093 53.696 99.7213 52.656C100.249 51.616 100.961 50.816 101.857 50.256C102.753 49.696 103.753 49.416 104.857 49.416C105.801 49.416 106.625 49.608 107.329 49.992C108.049 50.376 108.601 50.88 108.985 51.504V49.608H113.089V63H108.985V61.104C108.585 61.728 108.025 62.232 107.305 62.616C106.601 63 105.777 63.192 104.833 63.192C103.745 63.192 102.753 62.912 101.857 62.352C100.961 61.776 100.249 60.968 99.7213 59.928C99.2093 58.872 98.9533 57.656 98.9533 56.28ZM108.985 56.304C108.985 55.28 108.697 54.472 108.121 53.88C107.561 53.288 106.873 52.992 106.057 52.992C105.241 52.992 104.545 53.288 103.969 53.88C103.409 54.456 103.129 55.256 103.129 56.28C103.129 57.304 103.409 58.12 103.969 58.728C104.545 59.32 105.241 59.616 106.057 59.616C106.873 59.616 107.561 59.32 108.121 58.728C108.697 58.136 108.985 57.328 108.985 56.304ZM124.218 49.464C125.786 49.464 127.034 49.976 127.962 51C128.906 52.008 129.378 53.4 129.378 55.176V63H125.298V55.728C125.298 54.832 125.066 54.136 124.602 53.64C124.138 53.144 123.514 52.896 122.73 52.896C121.946 52.896 121.322 53.144 120.858 53.64C120.394 54.136 120.162 54.832 120.162 55.728V63H116.058V49.608H120.162V51.384C120.578 50.792 121.138 50.328 121.842 49.992C122.546 49.64 123.338 49.464 124.218 49.464ZM138.254 59.16L141.158 49.608H145.526L140.774 63H135.71L130.958 49.608H135.35L138.254 59.16ZM146.438 56.28C146.438 54.904 146.694 53.696 147.206 52.656C147.734 51.616 148.446 50.816 149.342 50.256C150.238 49.696 151.238 49.416 152.342 49.416C153.286 49.416 154.11 49.608 154.814 49.992C155.534 50.376 156.086 50.88 156.47 51.504V49.608H160.574V63H156.47V61.104C156.07 61.728 155.51 62.232 154.79 62.616C154.086 63 153.262 63.192 152.318 63.192C151.23 63.192 150.238 62.912 149.342 62.352C148.446 61.776 147.734 60.968 147.206 59.928C146.694 58.872 146.438 57.656 146.438 56.28ZM156.47 56.304C156.47 55.28 156.182 54.472 155.606 53.88C155.046 53.288 154.358 52.992 153.542 52.992C152.726 52.992 152.03 53.288 151.454 53.88C150.894 54.456 150.614 55.256 150.614 56.28C150.614 57.304 150.894 58.12 151.454 58.728C152.03 59.32 152.726 59.616 153.542 59.616C154.358 59.616 155.046 59.32 155.606 58.728C156.182 58.136 156.47 57.328 156.47 56.304Z" fill="#3366FF"/>
<path d="M181.469 51.576C181.469 52.552 181.245 53.448 180.797 54.264C180.349 55.064 179.661 55.712 178.733 56.208C177.805 56.704 176.653 56.952 175.277 56.952H172.733V63H168.629V46.152H175.277C176.621 46.152 177.757 46.384 178.685 46.848C179.613 47.312 180.309 47.952 180.773 48.768C181.237 49.584 181.469 50.52 181.469 51.576ZM174.965 53.688C175.749 53.688 176.333 53.504 176.717 53.136C177.101 52.768 177.293 52.248 177.293 51.576C177.293 50.904 177.101 50.384 176.717 50.016C176.333 49.648 175.749 49.464 174.965 49.464H172.733V53.688H174.965ZM187.709 51.84C188.189 51.104 188.789 50.528 189.509 50.112C190.229 49.68 191.029 49.464 191.909 49.464V53.808H190.781C189.757 53.808 188.989 54.032 188.477 54.48C187.965 54.912 187.709 55.68 187.709 56.784V63H183.605V49.608H187.709V51.84ZM199.967 63.192C198.655 63.192 197.471 62.912 196.415 62.352C195.375 61.792 194.551 60.992 193.943 59.952C193.351 58.912 193.055 57.696 193.055 56.304C193.055 54.928 193.359 53.72 193.967 52.68C194.575 51.624 195.407 50.816 196.463 50.256C197.519 49.696 198.703 49.416 200.015 49.416C201.327 49.416 202.511 49.696 203.567 50.256C204.623 50.816 205.455 51.624 206.063 52.68C206.671 53.72 206.975 54.928 206.975 56.304C206.975 57.68 206.663 58.896 206.039 59.952C205.431 60.992 204.591 61.792 203.519 62.352C202.463 62.912 201.279 63.192 199.967 63.192ZM199.967 59.64C200.751 59.64 201.415 59.352 201.959 58.776C202.519 58.2 202.799 57.376 202.799 56.304C202.799 55.232 202.527 54.408 201.983 53.832C201.455 53.256 200.799 52.968 200.015 52.968C199.215 52.968 198.551 53.256 198.023 53.832C197.495 54.392 197.231 55.216 197.231 56.304C197.231 57.376 197.487 58.2 197.999 58.776C198.527 59.352 199.183 59.64 199.967 59.64Z" fill="#333399"/>
</g>
<defs>
<filter id="filter0_d_0_539" x="0" y="0" width="288" height="126" filterUnits="userSpaceOnUse" color-interpolation-filters="sRGB">
<feFlood flood-opacity="0" result="BackgroundImageFix"/>
<feColorMatrix in="SourceAlpha" type="matrix" values="0 0 0 0 0 0 0 0 0 0 0 0 0 0 0 0 0 0 127 0" result="hardAlpha"/>
<feOffset dy="8"/>
<feGaussianBlur stdDeviation="8"/>
<feComposite in2="hardAlpha" operator="out"/>
<feColorMatrix type="matrix" values="0 0 0 0 0 0 0 0 0 0 0 0 0 0 0 0 0 0 0.15 0"/>
<feBlend mode="normal" in2="BackgroundImageFix" result="effect1_dropShadow_0_539"/>
<feBlend mode="normal" in="SourceGraphic" in2="effect1_dropShadow_0_539" result="shape"/>
</filter>
</defs>
</svg>
