<svg width="288" height="126" viewBox="0 0 288 126" fill="none" xmlns="http://www.w3.org/2000/svg">
<g filter="url(#filter0_d_0_531)">
<rect x="16" y="8" width="256" height="94" rx="18" fill="white"/>
<path d="M104.584 63.168C103.352 63.168 102.248 62.968 101.272 62.568C100.296 62.168 99.512 61.576 98.92 60.792C98.344 60.008 98.04 59.064 98.008 57.96H102.376C102.44 58.584 102.656 59.064 103.024 59.4C103.392 59.72 103.872 59.88 104.464 59.88C105.072 59.88 105.552 59.744 105.904 59.472C106.256 59.184 106.432 58.792 106.432 58.296C106.432 57.88 106.288 57.536 106 57.264C105.728 56.992 105.384 56.768 104.968 56.592C104.568 56.416 103.992 56.216 103.24 55.992C102.152 55.656 101.264 55.32 100.576 54.984C99.888 54.648 99.296 54.152 98.8 53.496C98.304 52.84 98.056 51.984 98.056 50.928C98.056 49.36 98.624 48.136 99.76 47.256C100.896 46.36 102.376 45.912 104.2 45.912C106.056 45.912 107.552 46.36 108.688 47.256C109.824 48.136 110.432 49.368 110.512 50.952H106.072C106.04 50.408 105.84 49.984 105.472 49.68C105.104 49.36 104.632 49.2 104.056 49.2C103.56 49.2 103.16 49.336 102.856 49.608C102.552 49.864 102.4 50.24 102.4 50.736C102.4 51.28 102.656 51.704 103.168 52.008C103.68 52.312 104.48 52.64 105.568 52.992C106.656 53.36 107.536 53.712 108.208 54.048C108.896 54.384 109.488 54.872 109.984 55.512C110.48 56.152 110.728 56.976 110.728 57.984C110.728 58.944 110.48 59.816 109.984 60.6C109.504 61.384 108.8 62.008 107.872 62.472C106.944 62.936 105.848 63.168 104.584 63.168ZM121.486 49.464C123.022 49.464 124.254 49.976 125.182 51C126.11 52.008 126.574 53.4 126.574 55.176V63H122.494V55.728C122.494 54.832 122.262 54.136 121.798 53.64C121.334 53.144 120.71 52.896 119.926 52.896C119.142 52.896 118.518 53.144 118.054 53.64C117.59 54.136 117.358 54.832 117.358 55.728V63H113.254V45.24H117.358V51.408C117.774 50.816 118.342 50.344 119.062 49.992C119.782 49.64 120.59 49.464 121.486 49.464ZM135.522 63.192C134.21 63.192 133.026 62.912 131.97 62.352C130.93 61.792 130.106 60.992 129.498 59.952C128.906 58.912 128.61 57.696 128.61 56.304C128.61 54.928 128.914 53.72 129.521 52.68C130.13 51.624 130.962 50.816 132.018 50.256C133.074 49.696 134.258 49.416 135.57 49.416C136.882 49.416 138.066 49.696 139.122 50.256C140.178 50.816 141.01 51.624 141.618 52.68C142.226 53.72 142.53 54.928 142.53 56.304C142.53 57.68 142.218 58.896 141.594 59.952C140.986 60.992 140.146 61.792 139.074 62.352C138.018 62.912 136.834 63.192 135.522 63.192ZM135.522 59.64C136.306 59.64 136.97 59.352 137.514 58.776C138.074 58.2 138.354 57.376 138.354 56.304C138.354 55.232 138.082 54.408 137.538 53.832C137.01 53.256 136.354 52.968 135.57 52.968C134.77 52.968 134.106 53.256 133.578 53.832C133.05 54.392 132.786 55.216 132.786 56.304C132.786 57.376 133.042 58.2 133.554 58.776C134.082 59.352 134.738 59.64 135.522 59.64ZM148.811 51.504C149.211 50.88 149.763 50.376 150.467 49.992C151.171 49.608 151.995 49.416 152.939 49.416C154.043 49.416 155.043 49.696 155.939 50.256C156.835 50.816 157.539 51.616 158.051 52.656C158.579 53.696 158.843 54.904 158.843 56.28C158.843 57.656 158.579 58.872 158.051 59.928C157.539 60.968 156.835 61.776 155.939 62.352C155.043 62.912 154.043 63.192 152.939 63.192C152.011 63.192 151.187 63 150.467 62.616C149.763 62.232 149.211 61.736 148.811 61.128V69.384H144.707V49.608H148.811V51.504ZM154.667 56.28C154.667 55.256 154.379 54.456 153.803 53.88C153.243 53.288 152.547 52.992 151.715 52.992C150.899 52.992 150.203 53.288 149.627 53.88C149.067 54.472 148.787 55.28 148.787 56.304C148.787 57.328 149.067 58.136 149.627 58.728C150.203 59.32 150.899 59.616 151.715 59.616C152.531 59.616 153.227 59.32 153.803 58.728C154.379 58.12 154.667 57.304 154.667 56.28ZM163.06 48.216C162.34 48.216 161.748 48.008 161.284 47.592C160.836 47.16 160.612 46.632 160.612 46.008C160.612 45.368 160.836 44.84 161.284 44.424C161.748 43.992 162.34 43.776 163.06 43.776C163.764 43.776 164.34 43.992 164.788 44.424C165.252 44.84 165.484 45.368 165.484 46.008C165.484 46.632 165.252 47.16 164.788 47.592C164.34 48.008 163.764 48.216 163.06 48.216ZM165.1 49.608V63H160.996V49.608H165.1ZM174.794 53.016H172.586V63H168.482V53.016H166.994V49.608H168.482V49.224C168.482 47.576 168.954 46.328 169.898 45.48C170.842 44.616 172.226 44.184 174.05 44.184C174.354 44.184 174.578 44.192 174.722 44.208V47.688C173.938 47.64 173.386 47.752 173.066 48.024C172.746 48.296 172.586 48.784 172.586 49.488V49.608H174.794V53.016ZM190.402 49.608L182.002 69.36H177.586L180.658 62.544L175.21 49.608H179.794L182.89 57.984L185.962 49.608H190.402Z" fill="#99CC00"/>
</g>
<defs>
<filter id="filter0_d_0_531" x="0" y="0" width="288" height="126" filterUnits="userSpaceOnUse" color-interpolation-filters="sRGB">
<feFlood flood-opacity="0" result="BackgroundImageFix"/>
<feColorMatrix in="SourceAlpha" type="matrix" values="0 0 0 0 0 0 0 0 0 0 0 0 0 0 0 0 0 0 127 0" result="hardAlpha"/>
<feOffset dy="8"/>
<feGaussianBlur stdDeviation="8"/>
<feComposite in2="hardAlpha" operator="out"/>
<feColorMatrix type="matrix" values="0 0 0 0 0 0 0 0 0 0 0 0 0 0 0 0 0 0 0.15 0"/>
<feBlend mode="normal" in2="BackgroundImageFix" result="effect1_dropShadow_0_531"/>
<feBlend mode="normal" in="SourceGraphic" in2="effect1_dropShadow_0_531" result="shape"/>
</filter>
</defs>
</svg>
