<svg width="288" height="126" viewBox="0 0 288 126" fill="none" xmlns="http://www.w3.org/2000/svg">
<g filter="url(#filter0_d_0_533)">
<rect x="16" y="8" width="256" height="94" rx="18" fill="white"/>
<path d="M126.808 63L123.376 57.84L120.352 63H115.696L121.096 54.432L115.576 46.152H120.352L123.736 51.24L126.712 46.152H131.368L126.016 54.648L131.584 63H126.808ZM146.268 56.088C146.268 56.472 146.244 56.872 146.196 57.288H136.908C136.972 58.12 137.236 58.76 137.7 59.208C138.18 59.64 138.764 59.856 139.452 59.856C140.476 59.856 141.188 59.424 141.588 58.56H145.956C145.732 59.44 145.324 60.232 144.732 60.936C144.156 61.64 143.428 62.192 142.548 62.592C141.668 62.992 140.684 63.192 139.596 63.192C138.284 63.192 137.116 62.912 136.092 62.352C135.068 61.792 134.268 60.992 133.692 59.952C133.116 58.912 132.828 57.696 132.828 56.304C132.828 54.912 133.108 53.696 133.668 52.656C134.244 51.616 135.044 50.816 136.068 50.256C137.092 49.696 138.268 49.416 139.596 49.416C140.892 49.416 142.044 49.688 143.052 50.232C144.06 50.776 144.844 51.552 145.404 52.56C145.98 53.568 146.268 54.744 146.268 56.088ZM142.068 55.008C142.068 54.304 141.828 53.744 141.348 53.328C140.868 52.912 140.268 52.704 139.548 52.704C138.86 52.704 138.276 52.904 137.796 53.304C137.332 53.704 137.044 54.272 136.932 55.008H142.068ZM152.537 51.84C153.017 51.104 153.617 50.528 154.337 50.112C155.057 49.68 155.857 49.464 156.737 49.464V53.808H155.609C154.585 53.808 153.817 54.032 153.305 54.48C152.793 54.912 152.537 55.68 152.537 56.784V63H148.433V49.608H152.537V51.84ZM164.795 63.192C163.483 63.192 162.299 62.912 161.243 62.352C160.203 61.792 159.379 60.992 158.771 59.952C158.179 58.912 157.883 57.696 157.883 56.304C157.883 54.928 158.187 53.72 158.795 52.68C159.403 51.624 160.235 50.816 161.291 50.256C162.347 49.696 163.531 49.416 164.843 49.416C166.155 49.416 167.339 49.696 168.395 50.256C169.451 50.816 170.283 51.624 170.891 52.68C171.499 53.72 171.803 54.928 171.803 56.304C171.803 57.68 171.491 58.896 170.867 59.952C170.259 60.992 169.419 61.792 168.347 62.352C167.291 62.912 166.107 63.192 164.795 63.192ZM164.795 59.64C165.579 59.64 166.243 59.352 166.787 58.776C167.347 58.2 167.627 57.376 167.627 56.304C167.627 55.232 167.355 54.408 166.811 53.832C166.283 53.256 165.627 52.968 164.843 52.968C164.043 52.968 163.379 53.256 162.851 53.832C162.323 54.392 162.059 55.216 162.059 56.304C162.059 57.376 162.315 58.2 162.827 58.776C163.355 59.352 164.011 59.64 164.795 59.64Z" fill="#4AD6FF"/>
</g>
<defs>
<filter id="filter0_d_0_533" x="0" y="0" width="288" height="126" filterUnits="userSpaceOnUse" color-interpolation-filters="sRGB">
<feFlood flood-opacity="0" result="BackgroundImageFix"/>
<feColorMatrix in="SourceAlpha" type="matrix" values="0 0 0 0 0 0 0 0 0 0 0 0 0 0 0 0 0 0 127 0" result="hardAlpha"/>
<feOffset dy="8"/>
<feGaussianBlur stdDeviation="8"/>
<feComposite in2="hardAlpha" operator="out"/>
<feColorMatrix type="matrix" values="0 0 0 0 0 0 0 0 0 0 0 0 0 0 0 0 0 0 0.15 0"/>
<feBlend mode="normal" in2="BackgroundImageFix" result="effect1_dropShadow_0_533"/>
<feBlend mode="normal" in="SourceGraphic" in2="effect1_dropShadow_0_533" result="shape"/>
</filter>
</defs>
</svg>
