<svg width="288" height="126" viewBox="0 0 288 126" fill="none" xmlns="http://www.w3.org/2000/svg">
<g filter="url(#filter0_d_0_535)">
<rect x="16" y="8" width="256" height="94" rx="18" fill="white"/>
<path d="M56.008 68.016C54.456 66.528 53.248 64.608 52.384 62.256C51.52 59.904 51.088 57.368 51.088 54.648C51.088 51.896 51.536 49.328 52.432 46.944C53.328 44.544 54.6 42.592 56.248 41.088H60.28V41.472C58.6 43.136 57.304 45.136 56.392 47.472C55.48 49.792 55.024 52.184 55.024 54.648C55.024 57.096 55.464 59.456 56.344 61.728C57.224 64 58.464 65.968 60.064 67.632V68.016H56.008ZM60.8215 68.016V67.632C62.4215 65.968 63.6615 64 64.5415 61.728C65.4215 59.456 65.8615 57.096 65.8615 54.648C65.8615 52.184 65.4055 49.792 64.4935 47.472C63.5815 45.136 62.2855 43.136 60.6055 41.472V41.088H64.6375C66.2855 42.592 67.5575 44.544 68.4535 46.944C69.3495 49.328 69.7975 51.896 69.7975 54.648C69.7975 57.368 69.3655 59.904 68.5015 62.256C67.6375 64.608 66.4295 66.528 64.8775 68.016H60.8215ZM88.435 63H84.331L77.467 52.608V63H73.363V46.152H77.467L84.331 56.592V46.152H88.435V63ZM90.5939 56.28C90.5939 54.904 90.8499 53.696 91.3619 52.656C91.8899 51.616 92.6019 50.816 93.4979 50.256C94.3939 49.696 95.3939 49.416 96.4979 49.416C97.4419 49.416 98.2659 49.608 98.9699 49.992C99.6899 50.376 100.242 50.88 100.626 51.504V49.608H104.73V63H100.626V61.104C100.226 61.728 99.6659 62.232 98.9459 62.616C98.2419 63 97.4179 63.192 96.4739 63.192C95.3859 63.192 94.3939 62.912 93.4979 62.352C92.6019 61.776 91.8899 60.968 91.3619 59.928C90.8499 58.872 90.5939 57.656 90.5939 56.28ZM100.626 56.304C100.626 55.28 100.338 54.472 99.7619 53.88C99.2019 53.288 98.5139 52.992 97.6979 52.992C96.8819 52.992 96.1859 53.288 95.6099 53.88C95.0499 54.456 94.7699 55.256 94.7699 56.28C94.7699 57.304 95.0499 58.12 95.6099 58.728C96.1859 59.32 96.8819 59.616 97.6979 59.616C98.5139 59.616 99.2019 59.32 99.7619 58.728C100.338 58.136 100.626 57.328 100.626 56.304ZM124.787 49.464C126.451 49.464 127.771 49.968 128.747 50.976C129.739 51.984 130.235 53.384 130.235 55.176V63H126.155V55.728C126.155 54.864 125.923 54.2 125.459 53.736C125.011 53.256 124.387 53.016 123.587 53.016C122.787 53.016 122.155 53.256 121.691 53.736C121.243 54.2 121.019 54.864 121.019 55.728V63H116.939V55.728C116.939 54.864 116.707 54.2 116.243 53.736C115.795 53.256 115.171 53.016 114.371 53.016C113.571 53.016 112.939 53.256 112.475 53.736C112.027 54.2 111.803 54.864 111.803 55.728V63H107.699V49.608H111.803V51.288C112.219 50.728 112.763 50.288 113.435 49.968C114.107 49.632 114.867 49.464 115.715 49.464C116.723 49.464 117.619 49.68 118.403 50.112C119.203 50.544 119.827 51.16 120.275 51.96C120.739 51.224 121.371 50.624 122.171 50.16C122.971 49.696 123.843 49.464 124.787 49.464ZM145.729 56.088C145.729 56.472 145.705 56.872 145.657 57.288H136.369C136.433 58.12 136.697 58.76 137.161 59.208C137.641 59.64 138.225 59.856 138.913 59.856C139.937 59.856 140.649 59.424 141.049 58.56H145.417C145.193 59.44 144.785 60.232 144.193 60.936C143.617 61.64 142.889 62.192 142.009 62.592C141.129 62.992 140.145 63.192 139.057 63.192C137.745 63.192 136.577 62.912 135.553 62.352C134.529 61.792 133.729 60.992 133.153 59.952C132.577 58.912 132.289 57.696 132.289 56.304C132.289 54.912 132.569 53.696 133.129 52.656C133.705 51.616 134.505 50.816 135.529 50.256C136.553 49.696 137.729 49.416 139.057 49.416C140.353 49.416 141.505 49.688 142.513 50.232C143.521 50.776 144.305 51.552 144.865 52.56C145.441 53.568 145.729 54.744 145.729 56.088ZM141.529 55.008C141.529 54.304 141.289 53.744 140.809 53.328C140.329 52.912 139.729 52.704 139.009 52.704C138.321 52.704 137.737 52.904 137.257 53.304C136.793 53.704 136.505 54.272 136.393 55.008H141.529ZM153.342 63.192C152.174 63.192 151.134 62.992 150.222 62.592C149.31 62.192 148.59 61.648 148.062 60.96C147.534 60.256 147.238 59.472 147.174 58.608H151.23C151.278 59.072 151.494 59.448 151.878 59.736C152.262 60.024 152.734 60.168 153.294 60.168C153.806 60.168 154.198 60.072 154.47 59.88C154.758 59.672 154.902 59.408 154.902 59.088C154.902 58.704 154.702 58.424 154.302 58.248C153.902 58.056 153.254 57.848 152.358 57.624C151.398 57.4 150.598 57.168 149.958 56.928C149.318 56.672 148.766 56.28 148.302 55.752C147.838 55.208 147.606 54.48 147.606 53.568C147.606 52.8 147.814 52.104 148.23 51.48C148.662 50.84 149.286 50.336 150.102 49.968C150.934 49.6 151.918 49.416 153.054 49.416C154.734 49.416 156.054 49.832 157.014 50.664C157.99 51.496 158.55 52.6 158.694 53.976H154.902C154.838 53.512 154.63 53.144 154.278 52.872C153.942 52.6 153.494 52.464 152.934 52.464C152.454 52.464 152.086 52.56 151.83 52.752C151.574 52.928 151.446 53.176 151.446 53.496C151.446 53.88 151.646 54.168 152.046 54.36C152.462 54.552 153.102 54.744 153.966 54.936C154.958 55.192 155.766 55.448 156.39 55.704C157.014 55.944 157.558 56.344 158.022 56.904C158.502 57.448 158.75 58.184 158.766 59.112C158.766 59.896 158.542 60.6 158.094 61.224C157.662 61.832 157.03 62.312 156.198 62.664C155.382 63.016 154.43 63.192 153.342 63.192ZM163.197 63.192C162.477 63.192 161.885 62.984 161.421 62.568C160.973 62.136 160.749 61.608 160.749 60.984C160.749 60.344 160.973 59.808 161.421 59.376C161.885 58.944 162.477 58.728 163.197 58.728C163.901 58.728 164.477 58.944 164.925 59.376C165.389 59.808 165.621 60.344 165.621 60.984C165.621 61.608 165.389 62.136 164.925 62.568C164.477 62.984 163.901 63.192 163.197 63.192ZM167.354 54.552C167.354 52.888 167.715 51.408 168.435 50.112C169.155 48.8 170.155 47.784 171.435 47.064C172.731 46.328 174.195 45.96 175.827 45.96C177.827 45.96 179.539 46.488 180.963 47.544C182.387 48.6 183.339 50.04 183.819 51.864H179.307C178.971 51.16 178.491 50.624 177.867 50.256C177.259 49.888 176.563 49.704 175.779 49.704C174.515 49.704 173.491 50.144 172.707 51.024C171.923 51.904 171.531 53.08 171.531 54.552C171.531 56.024 171.923 57.2 172.707 58.08C173.491 58.96 174.515 59.4 175.779 59.4C176.563 59.4 177.259 59.216 177.867 58.848C178.491 58.48 178.971 57.944 179.307 57.24H183.819C183.339 59.064 182.387 60.504 180.963 61.56C179.539 62.6 177.827 63.12 175.827 63.12C174.195 63.12 172.731 62.76 171.435 62.04C170.155 61.304 169.155 60.288 168.435 58.992C167.715 57.696 167.354 56.216 167.354 54.552ZM192.428 63.192C191.116 63.192 189.932 62.912 188.876 62.352C187.836 61.792 187.012 60.992 186.404 59.952C185.812 58.912 185.516 57.696 185.516 56.304C185.516 54.928 185.82 53.72 186.428 52.68C187.036 51.624 187.868 50.816 188.924 50.256C189.98 49.696 191.164 49.416 192.476 49.416C193.788 49.416 194.972 49.696 196.028 50.256C197.084 50.816 197.916 51.624 198.524 52.68C199.132 53.72 199.436 54.928 199.436 56.304C199.436 57.68 199.124 58.896 198.5 59.952C197.892 60.992 197.052 61.792 195.98 62.352C194.924 62.912 193.74 63.192 192.428 63.192ZM192.428 59.64C193.212 59.64 193.876 59.352 194.42 58.776C194.98 58.2 195.26 57.376 195.26 56.304C195.26 55.232 194.988 54.408 194.444 53.832C193.916 53.256 193.26 52.968 192.476 52.968C191.676 52.968 191.012 53.256 190.484 53.832C189.956 54.392 189.692 55.216 189.692 56.304C189.692 57.376 189.948 58.2 190.46 58.776C190.988 59.352 191.644 59.64 192.428 59.64ZM203.533 63.192C202.813 63.192 202.221 62.984 201.757 62.568C201.309 62.136 201.085 61.608 201.085 60.984C201.085 60.344 201.309 59.808 201.757 59.376C202.221 58.944 202.813 58.728 203.533 58.728C204.237 58.728 204.813 58.944 205.261 59.376C205.725 59.808 205.957 60.344 205.957 60.984C205.957 61.608 205.725 62.136 205.261 62.568C204.813 62.984 204.237 63.192 203.533 63.192ZM212.418 46.152V56.232C212.418 57.24 212.666 58.016 213.162 58.56C213.658 59.104 214.386 59.376 215.346 59.376C216.306 59.376 217.042 59.104 217.554 58.56C218.066 58.016 218.322 57.24 218.322 56.232V46.152H222.426V56.208C222.426 57.712 222.106 58.984 221.466 60.024C220.826 61.064 219.962 61.848 218.874 62.376C217.802 62.904 216.602 63.168 215.274 63.168C213.946 63.168 212.754 62.912 211.698 62.4C210.658 61.872 209.834 61.088 209.226 60.048C208.618 58.992 208.314 57.712 208.314 56.208V46.152H212.418ZM233.492 63L229.412 57.384V63H225.308V45.24H229.412V55.056L233.468 49.608H238.532L232.964 56.328L238.58 63H233.492Z" fill="#808080"/>
</g>
<defs>
<filter id="filter0_d_0_535" x="0" y="0" width="288" height="126" filterUnits="userSpaceOnUse" color-interpolation-filters="sRGB">
<feFlood flood-opacity="0" result="BackgroundImageFix"/>
<feColorMatrix in="SourceAlpha" type="matrix" values="0 0 0 0 0 0 0 0 0 0 0 0 0 0 0 0 0 0 127 0" result="hardAlpha"/>
<feOffset dy="8"/>
<feGaussianBlur stdDeviation="8"/>
<feComposite in2="hardAlpha" operator="out"/>
<feColorMatrix type="matrix" values="0 0 0 0 0 0 0 0 0 0 0 0 0 0 0 0 0 0 0.15 0"/>
<feBlend mode="normal" in2="BackgroundImageFix" result="effect1_dropShadow_0_535"/>
<feBlend mode="normal" in="SourceGraphic" in2="effect1_dropShadow_0_535" result="shape"/>
</filter>
</defs>
</svg>
