<svg width="288" height="126" viewBox="0 0 288 126" fill="none" xmlns="http://www.w3.org/2000/svg">
<g filter="url(#filter0_d_0_537)">
<rect x="16" y="8" width="256" height="94" rx="18" fill="white"/>
<path d="M69.584 63.168C68.352 63.168 67.248 62.968 66.272 62.568C65.296 62.168 64.512 61.576 63.92 60.792C63.344 60.008 63.04 59.064 63.008 57.96H67.376C67.44 58.584 67.656 59.064 68.024 59.4C68.392 59.72 68.872 59.88 69.464 59.88C70.072 59.88 70.552 59.744 70.904 59.472C71.256 59.184 71.432 58.792 71.432 58.296C71.432 57.88 71.288 57.536 71 57.264C70.728 56.992 70.384 56.768 69.968 56.592C69.568 56.416 68.992 56.216 68.24 55.992C67.152 55.656 66.264 55.32 65.576 54.984C64.888 54.648 64.296 54.152 63.8 53.496C63.304 52.84 63.056 51.984 63.056 50.928C63.056 49.36 63.624 48.136 64.76 47.256C65.896 46.36 67.376 45.912 69.2 45.912C71.056 45.912 72.552 46.36 73.688 47.256C74.824 48.136 75.432 49.368 75.512 50.952H71.072C71.04 50.408 70.84 49.984 70.472 49.68C70.104 49.36 69.632 49.2 69.056 49.2C68.56 49.2 68.16 49.336 67.856 49.608C67.552 49.864 67.4 50.24 67.4 50.736C67.4 51.28 67.656 51.704 68.168 52.008C68.68 52.312 69.48 52.64 70.568 52.992C71.656 53.36 72.536 53.712 73.208 54.048C73.896 54.384 74.488 54.872 74.984 55.512C75.48 56.152 75.728 56.976 75.728 57.984C75.728 58.944 75.48 59.816 74.984 60.6C74.504 61.384 73.8 62.008 72.872 62.472C71.944 62.936 70.848 63.168 69.584 63.168ZM77.4376 56.328C77.4376 55 77.7096 53.816 78.2536 52.776C78.8136 51.736 79.5576 50.928 80.4856 50.352C81.4296 49.76 82.4536 49.464 83.5576 49.464C84.4056 49.464 85.1656 49.616 85.8376 49.92C86.5096 50.208 87.0536 50.616 87.4696 51.144V49.608H91.5736V69.384H87.4696V61.32C87.0056 61.88 86.4376 62.328 85.7656 62.664C85.1096 63 84.3576 63.168 83.5096 63.168C82.4216 63.168 81.4136 62.88 80.4856 62.304C79.5576 61.728 78.8136 60.92 78.2536 59.88C77.7096 58.84 77.4376 57.656 77.4376 56.328ZM87.4696 56.304C87.4696 55.584 87.3256 54.984 87.0376 54.504C86.7656 54.008 86.4056 53.64 85.9576 53.4C85.5096 53.144 85.0376 53.016 84.5416 53.016C84.0616 53.016 83.5976 53.144 83.1496 53.4C82.7016 53.64 82.3336 54.008 82.0456 54.504C81.7576 55 81.6136 55.608 81.6136 56.328C81.6136 57.048 81.7576 57.656 82.0456 58.152C82.3336 58.632 82.7016 59 83.1496 59.256C83.5976 59.496 84.0616 59.616 84.5416 59.616C85.0216 59.616 85.4856 59.496 85.9336 59.256C86.3976 59 86.7656 58.624 87.0376 58.128C87.3256 57.632 87.4696 57.024 87.4696 56.304ZM107.767 49.608V63H103.663V61.176C103.247 61.768 102.679 62.248 101.959 62.616C101.255 62.968 100.471 63.144 99.6067 63.144C98.5827 63.144 97.6787 62.92 96.8947 62.472C96.1107 62.008 95.5027 61.344 95.0707 60.48C94.6387 59.616 94.4227 58.6 94.4227 57.432V49.608H98.5027V56.88C98.5027 57.776 98.7347 58.472 99.1987 58.968C99.6627 59.464 100.287 59.712 101.071 59.712C101.871 59.712 102.503 59.464 102.967 58.968C103.431 58.472 103.663 57.776 103.663 56.88V49.608H107.767ZM109.899 56.28C109.899 54.904 110.155 53.696 110.667 52.656C111.195 51.616 111.907 50.816 112.803 50.256C113.699 49.696 114.699 49.416 115.803 49.416C116.747 49.416 117.571 49.608 118.275 49.992C118.995 50.376 119.547 50.88 119.931 51.504V49.608H124.035V63H119.931V61.104C119.531 61.728 118.971 62.232 118.251 62.616C117.547 63 116.723 63.192 115.779 63.192C114.691 63.192 113.699 62.912 112.803 62.352C111.907 61.776 111.195 60.968 110.667 59.928C110.155 58.872 109.899 57.656 109.899 56.28ZM119.931 56.304C119.931 55.28 119.643 54.472 119.067 53.88C118.507 53.288 117.819 52.992 117.003 52.992C116.187 52.992 115.491 53.288 114.915 53.88C114.355 54.456 114.075 55.256 114.075 56.28C114.075 57.304 114.355 58.12 114.915 58.728C115.491 59.32 116.187 59.616 117.003 59.616C117.819 59.616 118.507 59.32 119.067 58.728C119.643 58.136 119.931 57.328 119.931 56.304ZM131.108 51.84C131.588 51.104 132.188 50.528 132.908 50.112C133.628 49.68 134.428 49.464 135.308 49.464V53.808H134.18C133.156 53.808 132.388 54.032 131.876 54.48C131.364 54.912 131.108 55.68 131.108 56.784V63H127.004V49.608H131.108V51.84ZM149.893 56.088C149.893 56.472 149.869 56.872 149.821 57.288H140.533C140.597 58.12 140.861 58.76 141.325 59.208C141.805 59.64 142.389 59.856 143.077 59.856C144.101 59.856 144.813 59.424 145.213 58.56H149.581C149.357 59.44 148.949 60.232 148.357 60.936C147.781 61.64 147.053 62.192 146.173 62.592C145.293 62.992 144.309 63.192 143.221 63.192C141.909 63.192 140.741 62.912 139.717 62.352C138.693 61.792 137.893 60.992 137.317 59.952C136.741 58.912 136.453 57.696 136.453 56.304C136.453 54.912 136.733 53.696 137.293 52.656C137.869 51.616 138.669 50.816 139.693 50.256C140.717 49.696 141.893 49.416 143.221 49.416C144.517 49.416 145.669 49.688 146.677 50.232C147.685 50.776 148.469 51.552 149.029 52.56C149.605 53.568 149.893 54.744 149.893 56.088ZM145.693 55.008C145.693 54.304 145.453 53.744 144.973 53.328C144.493 52.912 143.893 52.704 143.173 52.704C142.485 52.704 141.901 52.904 141.421 53.304C140.957 53.704 140.669 54.272 140.557 55.008H145.693ZM157.506 63.192C156.338 63.192 155.298 62.992 154.386 62.592C153.474 62.192 152.754 61.648 152.226 60.96C151.698 60.256 151.402 59.472 151.338 58.608H155.394C155.442 59.072 155.658 59.448 156.042 59.736C156.426 60.024 156.898 60.168 157.458 60.168C157.97 60.168 158.362 60.072 158.634 59.88C158.922 59.672 159.066 59.408 159.066 59.088C159.066 58.704 158.866 58.424 158.466 58.248C158.066 58.056 157.418 57.848 156.522 57.624C155.562 57.4 154.762 57.168 154.122 56.928C153.482 56.672 152.93 56.28 152.466 55.752C152.002 55.208 151.77 54.48 151.77 53.568C151.77 52.8 151.978 52.104 152.394 51.48C152.826 50.84 153.45 50.336 154.266 49.968C155.098 49.6 156.082 49.416 157.218 49.416C158.898 49.416 160.218 49.832 161.178 50.664C162.154 51.496 162.714 52.6 162.858 53.976H159.066C159.002 53.512 158.794 53.144 158.442 52.872C158.106 52.6 157.658 52.464 157.098 52.464C156.618 52.464 156.25 52.56 155.994 52.752C155.738 52.928 155.61 53.176 155.61 53.496C155.61 53.88 155.81 54.168 156.21 54.36C156.626 54.552 157.266 54.744 158.13 54.936C159.122 55.192 159.93 55.448 160.554 55.704C161.178 55.944 161.722 56.344 162.186 56.904C162.666 57.448 162.914 58.184 162.93 59.112C162.93 59.896 162.706 60.6 162.258 61.224C161.826 61.832 161.194 62.312 160.362 62.664C159.546 63.016 158.594 63.192 157.506 63.192ZM169.545 51.504C169.945 50.88 170.497 50.376 171.201 49.992C171.905 49.608 172.729 49.416 173.673 49.416C174.777 49.416 175.777 49.696 176.673 50.256C177.569 50.816 178.273 51.616 178.785 52.656C179.313 53.696 179.577 54.904 179.577 56.28C179.577 57.656 179.313 58.872 178.785 59.928C178.273 60.968 177.569 61.776 176.673 62.352C175.777 62.912 174.777 63.192 173.673 63.192C172.745 63.192 171.921 63 171.201 62.616C170.497 62.232 169.945 61.736 169.545 61.128V69.384H165.441V49.608H169.545V51.504ZM175.401 56.28C175.401 55.256 175.113 54.456 174.537 53.88C173.977 53.288 173.281 52.992 172.449 52.992C171.633 52.992 170.937 53.288 170.361 53.88C169.801 54.472 169.521 55.28 169.521 56.304C169.521 57.328 169.801 58.136 170.361 58.728C170.937 59.32 171.633 59.616 172.449 59.616C173.265 59.616 173.961 59.32 174.537 58.728C175.113 58.12 175.401 57.304 175.401 56.28ZM180.914 56.28C180.914 54.904 181.17 53.696 181.682 52.656C182.21 51.616 182.922 50.816 183.818 50.256C184.714 49.696 185.714 49.416 186.818 49.416C187.762 49.416 188.586 49.608 189.29 49.992C190.01 50.376 190.562 50.88 190.946 51.504V49.608H195.05V63H190.946V61.104C190.546 61.728 189.986 62.232 189.266 62.616C188.562 63 187.738 63.192 186.794 63.192C185.706 63.192 184.714 62.912 183.818 62.352C182.922 61.776 182.21 60.968 181.682 59.928C181.17 58.872 180.914 57.656 180.914 56.28ZM190.946 56.304C190.946 55.28 190.658 54.472 190.082 53.88C189.522 53.288 188.834 52.992 188.018 52.992C187.202 52.992 186.506 53.288 185.93 53.88C185.37 54.456 185.09 55.256 185.09 56.28C185.09 57.304 185.37 58.12 185.93 58.728C186.506 59.32 187.202 59.616 188.018 59.616C188.834 59.616 189.522 59.32 190.082 58.728C190.658 58.136 190.946 57.328 190.946 56.304ZM197.203 56.304C197.203 54.912 197.483 53.696 198.043 52.656C198.619 51.616 199.411 50.816 200.419 50.256C201.443 49.696 202.611 49.416 203.923 49.416C205.603 49.416 207.003 49.856 208.123 50.736C209.259 51.616 210.003 52.856 210.355 54.456H205.987C205.619 53.432 204.907 52.92 203.851 52.92C203.099 52.92 202.499 53.216 202.051 53.808C201.603 54.384 201.379 55.216 201.379 56.304C201.379 57.392 201.603 58.232 202.051 58.824C202.499 59.4 203.099 59.688 203.851 59.688C204.907 59.688 205.619 59.176 205.987 58.152H210.355C210.003 59.72 209.259 60.952 208.123 61.848C206.987 62.744 205.587 63.192 203.923 63.192C202.611 63.192 201.443 62.912 200.419 62.352C199.411 61.792 198.619 60.992 198.043 59.952C197.483 58.912 197.203 57.696 197.203 56.304ZM225.174 56.088C225.174 56.472 225.151 56.872 225.103 57.288H215.815C215.879 58.12 216.143 58.76 216.607 59.208C217.087 59.64 217.671 59.856 218.359 59.856C219.383 59.856 220.095 59.424 220.495 58.56H224.863C224.639 59.44 224.231 60.232 223.639 60.936C223.063 61.64 222.335 62.192 221.455 62.592C220.575 62.992 219.591 63.192 218.503 63.192C217.191 63.192 216.023 62.912 214.999 62.352C213.975 61.792 213.175 60.992 212.599 59.952C212.023 58.912 211.735 57.696 211.735 56.304C211.735 54.912 212.015 53.696 212.575 52.656C213.151 51.616 213.951 50.816 214.975 50.256C215.999 49.696 217.175 49.416 218.503 49.416C219.799 49.416 220.951 49.688 221.959 50.232C222.967 50.776 223.751 51.552 224.311 52.56C224.887 53.568 225.174 54.744 225.174 56.088ZM220.975 55.008C220.975 54.304 220.735 53.744 220.255 53.328C219.775 52.912 219.175 52.704 218.455 52.704C217.767 52.704 217.183 52.904 216.703 53.304C216.239 53.704 215.951 54.272 215.839 55.008H220.975Z" fill="#003366"/>
</g>
<defs>
<filter id="filter0_d_0_537" x="0" y="0" width="288" height="126" filterUnits="userSpaceOnUse" color-interpolation-filters="sRGB">
<feFlood flood-opacity="0" result="BackgroundImageFix"/>
<feColorMatrix in="SourceAlpha" type="matrix" values="0 0 0 0 0 0 0 0 0 0 0 0 0 0 0 0 0 0 127 0" result="hardAlpha"/>
<feOffset dy="8"/>
<feGaussianBlur stdDeviation="8"/>
<feComposite in2="hardAlpha" operator="out"/>
<feColorMatrix type="matrix" values="0 0 0 0 0 0 0 0 0 0 0 0 0 0 0 0 0 0 0.15 0"/>
<feBlend mode="normal" in2="BackgroundImageFix" result="effect1_dropShadow_0_537"/>
<feBlend mode="normal" in="SourceGraphic" in2="effect1_dropShadow_0_537" result="shape"/>
</filter>
</defs>
</svg>
