<svg width="33" height="23" viewBox="0 0 33 23" fill="none" xmlns="http://www.w3.org/2000/svg">
<path d="M31.793 4.07422C32.4961 6.53516 32.4961 11.8086 32.4961 11.8086C32.4961 11.8086 32.4961 17.0234 31.793 19.543C31.4414 20.9492 30.3281 22.0039 28.9805 22.3555C26.4609 23 16.5 23 16.5 23C16.5 23 6.48047 23 3.96094 22.3555C2.61328 22.0039 1.5 20.9492 1.14844 19.543C0.445312 17.0234 0.445312 11.8086 0.445312 11.8086C0.445312 11.8086 0.445312 6.53516 1.14844 4.07422C1.5 2.66797 2.61328 1.55469 3.96094 1.20312C6.48047 0.5 16.5 0.5 16.5 0.5C16.5 0.5 26.4609 0.5 28.9805 1.20312C30.3281 1.55469 31.4414 2.66797 31.793 4.07422ZM13.2188 16.5547L21.5391 11.8086L13.2188 7.0625V16.5547Z" fill="#FEFEFE"/>
</svg>
